<?xml version="1.0" encoding="UTF-8" standalone="no"?>
<svg width="1440px" height="760px" viewBox="0 0 1440 760" version="1.1" xmlns="http://www.w3.org/2000/svg" xmlns:xlink="http://www.w3.org/1999/xlink">
    <!-- Generator: Sketch 3.6.1 (26313) - http://www.bohemiancoding.com/sketch -->
    <title>bg</title>
    <desc>Created with Sketch.</desc>
    <defs>
        <rect id="path-1" x="0" y="0" width="1440" height="760"></rect>
    </defs>
    <g id="Welcome" stroke="none" stroke-width="1" fill="none" fill-rule="evenodd">
        <g id="homepage">
            <g id="bg">
                <mask id="mask-2" fill="white">
                    <use xlink:href="#path-1"></use>
                </mask>
                <use id="Mask" fill="#28122E" xlink:href="#path-1"></use>
                <g id="Page-1" style="mix-blend-mode: screen;" mask="url(#mask-2)">
                    <g transform="translate(-40.000000, 43.000000)">
                        <path d="M700.916642,215.562442 L736.808543,226.582714 L753.811258,0.124130984 L700.916642,215.562442 Z" id="Fill-2" fill="#060608"></path>
                        <path d="M1473.31642,796.49545 L1506.16398,983.138007 L1506.16398,934.274255 L1492.51249,657.457454 L1473.31642,796.49545 Z" id="Fill-3" fill="#2D6AB2"></path>
                        <path d="M20.7888362,614.371109 L26.4538976,829.815067 L41.5682589,734.622883 L20.7888362,614.371109 Z" id="Fill-4" fill="#171A4B"></path>
                        <path d="M207.823032,697.544515 L179.484546,738.621613 L212.546741,784.716652 L207.823032,697.544515 Z" id="Fill-13" fill="#164A9E"></path>
                        <path d="M0,500.157616 L0,500.607462 L196.486696,445.028025 L189.874634,400.941292 L0,500.157616 Z" id="Fill-14" fill="#0D101F"></path>
                        <path d="M168.150093,34.1902281 L218.215003,187.508463 L244.661369,141.413424 L168.150093,34.1902281 Z" id="Fill-16" fill="#030305"></path>
                        <path d="M0,500.608214 L0,501.677303 L170.983565,550.241786 L196.486696,445.026896 L0,500.608214 Z" id="Fill-19" fill="#0E1024"></path>
                        <path d="M41.5684471,734.622318 L141.700149,722.589424 L150.200565,643.435452 L41.5684471,734.622318 Z" id="Fill-20" fill="#26306E"></path>
                        <path d="M658.409478,191.515475 L700.917207,215.56056 L753.811823,0.122248786 L658.409478,191.515475 Z" id="Fill-22" fill="#060608"></path>
                        <path d="M20.7888362,614.371109 L41.5682589,734.622883 L150.200377,643.434135 L20.7888362,614.371109 Z" id="Fill-24" fill="#1C1F53"></path>
                        <path d="M342.902458,201.5331 L408.083612,236.604103 L463.815466,230.594243 L342.902458,201.5331 Z" id="Fill-26" fill="#090C13"></path>
                        <path d="M218.214626,187.508463 L260.722355,291.71826 L296.618022,259.653128 L218.214626,187.508463 Z" id="Fill-28" fill="#0D101D"></path>
                        <path d="M168.150093,34.1902281 L178.540746,235.606161 L218.215003,187.508463 L168.150093,34.1902281 Z" id="Fill-29" fill="#060608"></path>
                        <path d="M20.7888362,614.371109 L150.200377,643.434135 L170.983565,550.242727 L20.7888362,614.371109 Z" id="Fill-30" fill="#0D133B"></path>
                        <path d="M0,510.543399 L20.7888362,614.371109 L170.983565,550.240845 L0,501.676362 L0,510.543399 Z" id="Fill-31" fill="#0F112B"></path>
                        <path d="M244.661558,141.41286 L218.215191,187.507898 L296.616704,259.652563 L244.661558,141.41286 Z" id="Fill-32" fill="#090D17"></path>
                        <path d="M184.208255,360.857995 L124.697811,315.766168 L189.875199,400.93941 L184.208255,360.857995 Z" id="Fill-37" fill="#0D0E1A"></path>
                        <path d="M0,498.384021 L0,500.157051 L189.874634,400.938845 L124.699128,315.767485 L0,498.384021 Z" id="Fill-38" fill="#0E0F1C"></path>
                        <path d="M141.700337,722.590176 L179.484358,738.622742 L207.822844,697.543762 L141.700337,722.590176 Z" id="Fill-41" fill="#224189"></path>
                        <path d="M149.966545,642.808115 L141.385172,723.217513 L208.136503,697.770191 L149.966545,642.808115 Z" id="Fill-42" fill="#25326E"></path>
                        <path d="M150.2,643.434887 L207.822091,697.544327 L229.548514,668.486948 L150.2,643.434887 Z" id="Fill-43" fill="#26377A"></path>
                        <path d="M215.380401,336.808581 L189.875387,400.940727 L271.114137,421.985587 L215.380401,336.808581 Z" id="Fill-44" fill="#0D1023"></path>
                        <path d="M150.2,643.434887 L229.548514,668.486948 L240.884285,589.321683 L150.2,643.434887 Z" id="Fill-46" fill="#222A62"></path>
                        <path d="M178.540746,235.605408 L124.697246,315.766356 L215.379648,336.809334 L178.540746,235.605408 Z" id="Fill-47" fill="#0B0C16"></path>
                        <path d="M189.875575,400.940163 L196.487638,445.028778 L271.114326,421.986905 L189.875575,400.940163 Z" id="Fill-48" fill="#0D1025"></path>
                        <path d="M184.208255,360.857995 L189.875199,400.93941 L215.380213,336.809146 L184.208255,360.857995 Z" id="Fill-49" fill="#0D0E1A"></path>
                        <path d="M124.697999,315.766168 L184.208443,360.857995 L215.380401,336.809146 L124.697999,315.766168 Z" id="Fill-50" fill="#0D0E19"></path>
                        <path d="M229.549456,668.486195 L207.823032,697.543574 L316.45515,729.606824 L229.549456,668.486195 Z" id="Fill-51" fill="#1E4494"></path>
                        <path d="M170.983377,550.242163 L150.200189,643.435452 L240.884474,589.322248 L170.983377,550.242163 Z" id="Fill-53" fill="#141446"></path>
                        <path d="M196.487261,445.028401 L170.98413,550.24141 L240.885227,589.321495 L196.487261,445.028401 Z" id="Fill-54" fill="#0D112C"></path>
                        <path d="M218.214626,187.508463 L178.540369,235.606161 L260.722355,291.71826 L218.214626,187.508463 Z" id="Fill-55" fill="#0B0C16"></path>
                        <path d="M335.349608,499.138029 L308.89571,573.291 L364.631329,586.315813 L335.349608,499.138029 Z" id="Fill-56" fill="#26306E"></path>
                        <path d="M178.540746,235.605408 L215.379648,336.809334 L260.720849,291.717507 L178.540746,235.605408 Z" id="Fill-57" fill="#0D0E1A"></path>
                        <path d="M260.721602,291.718448 L215.380401,336.808393 L271.114137,421.985399 L260.721602,291.718448 Z" id="Fill-58" fill="#0E1129"></path>
                        <path d="M240.885227,589.321683 L229.549456,668.486948 L266.388358,624.392686 L240.885227,589.321683 Z" id="Fill-62" fill="#263677"></path>
                        <path d="M307.00698,467.072709 L240.884474,589.321495 L308.895334,573.292694 L307.00698,467.072709 Z" id="Fill-66" fill="#28367E"></path>
                        <path d="M240.885227,589.321683 L266.388358,624.392686 L308.896087,573.291 L240.885227,589.321683 Z" id="Fill-67" fill="#263C89"></path>
                        <path d="M271.114137,421.986152 L196.487449,445.028025 L307.006039,467.072333 L271.114137,421.986152 Z" id="Fill-69" fill="#131444"></path>
                        <path d="M335.349608,499.138029 L364.631329,586.315813 L387.299106,559.259211 L335.349608,499.138029 Z" id="Fill-72" fill="#1B1D51"></path>
                        <path d="M196.487261,445.028401 L240.885227,589.321495 L307.007733,467.072709 L196.487261,445.028401 Z" id="Fill-73" fill="#19194D"></path>
                        <path d="M266.389111,624.392498 L229.550209,668.48676 L316.454021,729.605506 L266.389111,624.392498 Z" id="Fill-74" fill="#16479C"></path>
                        <path d="M207.239205,696.605298 L212.013747,785.657751 L317.040483,729.361197 L207.239205,696.605298 Z" id="Fill-75" fill="#18479C"></path>
                        <path d="M296.61708,259.653128 L260.721414,291.71826 L326.845803,295.723578 L296.61708,259.653128 Z" id="Fill-80" fill="#0D1025"></path>
                        <path d="M307.00698,467.072709 L308.895334,573.292694 L335.349231,499.137841 L307.00698,467.072709 Z" id="Fill-81" fill="#242A66"></path>
                        <path d="M260.721602,291.718448 L271.114137,421.985399 L326.845991,295.721884 L260.721602,291.718448 Z" id="Fill-83" fill="#0D1333"></path>
                        <path d="M296.61708,259.653128 L326.845803,295.723578 L342.901517,201.532723 L296.61708,259.653128 Z" id="Fill-84" fill="#0E0F1D"></path>
                        <path d="M244.661558,141.41286 L296.616704,259.652563 L342.903023,201.532159 L244.661558,141.41286 Z" id="Fill-85" fill="#0C0F19"></path>
                        <path d="M503.491417,339.816522 L520.494132,429.998294 L546.946147,321.777533 L503.491417,339.816522 Z" id="Fill-86" fill="#0F112B"></path>
                        <path d="M168.150093,34.1902281 L244.661369,141.413424 L342.902835,201.532723 L168.150093,34.1902281 Z" id="Fill-87" fill="#030305"></path>
                        <path d="M308.896087,573.291752 L266.388358,624.391557 L364.631706,586.316565 L308.896087,573.291752 Z" id="Fill-88" fill="#253D8E"></path>
                        <path d="M266.389111,624.392498 L316.454021,729.605506 L364.630576,586.317507 L266.389111,624.392498 Z" id="Fill-89" fill="#1D4FA1"></path>
                        <path d="M335.349608,499.138029 L387.299106,559.259211 L409.027412,504.146559 L335.349608,499.138029 Z" id="Fill-90" fill="#0D133D"></path>
                        <path d="M271.114137,421.986152 L307.006039,467.072333 L365.57513,339.816899 L271.114137,421.986152 Z" id="Fill-91" fill="#101440"></path>
                        <path d="M326.846179,295.722637 L271.114326,421.986152 L365.575318,339.816899 L326.846179,295.722637 Z" id="Fill-92" fill="#0E112D"></path>
                        <path d="M326.846179,295.722637 L365.575318,339.816899 L408.083047,236.604667 L326.846179,295.722637 Z" id="Fill-93" fill="#0C0F19"></path>
                        <path d="M494.044753,715.583505 L422.846472,800.389718 L504.422227,795.687986 L494.044753,715.583505 Z" id="Fill-94" fill="#4FB0E3"></path>
                        <path d="M342.902458,201.5331 L326.846744,295.722072 L408.083612,236.604103 L342.902458,201.5331 Z" id="Fill-99" fill="#0C0F19"></path>
                        <path d="M365.574942,339.816522 L307.007733,467.071956 L401.470608,389.916879 L365.574942,339.816522 Z" id="Fill-100" fill="#0C122B"></path>
                        <path d="M307.00698,467.072709 L335.349231,499.137841 L401.471738,389.91575 L307.00698,467.072709 Z" id="Fill-101" fill="#101440"></path>
                        <path d="M463.815842,230.593867 L503.491982,339.815958 L517.655577,217.569054 L463.815842,230.593867 Z" id="Fill-102" fill="#0D101E"></path>
                        <path d="M316.454585,729.606259 L360.852551,761.673273 L431.698766,599.346837 L316.454585,729.606259 Z" id="Fill-105" fill="#235AA8"></path>
                        <path d="M364.630765,586.316565 L316.454209,729.606447 L431.700272,599.347025 L364.630765,586.316565 Z" id="Fill-106" fill="#263C85"></path>
                        <path d="M409.027036,504.146936 L387.298729,559.259587 L431.698578,599.346648 L409.027036,504.146936 Z" id="Fill-107" fill="#1B1E51"></path>
                        <path d="M335.349608,499.138029 L409.027412,504.146559 L432.644072,426.993365 L335.349608,499.138029 Z" id="Fill-108" fill="#0E112D"></path>
                        <path d="M387.299671,559.259963 L364.630012,586.316565 L431.699519,599.347025 L387.299671,559.259963 Z" id="Fill-109" fill="#1D2256"></path>
                        <path d="M401.471361,389.916315 L335.348855,499.138406 L432.643319,426.993741 L401.471361,389.916315 Z" id="Fill-110" fill="#0D112A"></path>
                        <path d="M431.699519,599.346648 L482.707664,645.439805 L494.988553,549.240645 L431.699519,599.346648 Z" id="Fill-113" fill="#1F429A"></path>
                        <path d="M482.707099,645.44037 L360.850856,761.67365 L494.044753,715.584258 L482.707099,645.44037 Z" id="Fill-115" fill="#3376BB"></path>
                        <path d="M431.699519,599.346648 L360.851421,761.673085 L482.707664,645.439805 L431.699519,599.346648 Z" id="Fill-116" fill="#1A55A5"></path>
                        <path d="M360.851609,761.673462 L422.847225,800.3884 L494.045506,715.584069 L360.851609,761.673462 Z" id="Fill-117" fill="#4CA2D9"></path>
                        <path d="M365.574942,339.816522 L401.470608,389.916879 L503.490664,339.816522 L365.574942,339.816522 Z" id="Fill-118" fill="#0E0F1C"></path>
                        <path d="M409.027036,504.146936 L431.698578,599.346648 L494.989495,549.240645 L409.027036,504.146936 Z" id="Fill-119" fill="#1F2258"></path>
                        <path d="M432.643508,426.994306 L409.026847,504.1475 L494.989306,549.24121 L432.643508,426.994306 Z" id="Fill-120" fill="#0D133D"></path>
                        <path d="M408.082859,236.604667 L365.57513,339.816899 L503.490852,339.816899 L408.082859,236.604667 Z" id="Fill-121" fill="#0C0E19"></path>
                        <path d="M463.815842,230.593867 L408.082106,236.603726 L503.491982,339.815958 L463.815842,230.593867 Z" id="Fill-122" fill="#0E0F1C"></path>
                        <path d="M401.471361,389.916315 L432.643319,426.993741 L503.491417,339.815958 L401.471361,389.916315 Z" id="Fill-123" fill="#0E1124"></path>
                        <path d="M628.178308,637.422581 L552.606502,642.427347 L641.406198,694.536009 L628.178308,637.422581 Z" id="Fill-124" fill="#4094D0"></path>
                        <path d="M342.902458,201.5331 L463.815466,230.594243 L517.6552,217.56943 L342.902458,201.5331 Z" id="Fill-125" fill="#0B0D17"></path>
                        <path d="M794.433834,587.320154 L757.593049,718.582788 L816.160258,666.481654 L794.433834,587.320154 Z" id="Fill-128" fill="#3F9DD7"></path>
                        <path d="M432.643508,426.994306 L494.989306,549.24121 L520.49432,429.998294 L432.643508,426.994306 Z" id="Fill-130" fill="#171648"></path>
                        <path d="M503.491417,339.816522 L432.643319,426.994306 L520.494132,429.998294 L503.491417,339.816522 Z" id="Fill-131" fill="#0E1231"></path>
                        <path d="M517.655765,217.569242 L503.49217,339.816146 L546.945017,321.777156 L517.655765,217.569242 Z" id="Fill-132" fill="#0D1025"></path>
                        <path d="M482.707099,645.44037 L494.044753,715.584258 L552.606313,642.42697 L482.707099,645.44037 Z" id="Fill-135" fill="#3A71B7"></path>
                        <path d="M494.98893,549.240457 L482.708041,645.439617 L552.607255,642.428099 L494.98893,549.240457 Z" id="Fill-136" fill="#3354A4"></path>
                        <path d="M552.607255,642.427723 L581.896507,764.676509 L641.406951,694.536386 L552.607255,642.427723 Z" id="Fill-137" fill="#4CC0EF"></path>
                        <path d="M546.945394,321.77678 L520.493379,429.999424 L576.227115,431.000753 L546.945394,321.77678 Z" id="Fill-138" fill="#0F112B"></path>
                        <path d="M517.655765,217.569242 L646.12407,233.601808 L658.408725,191.51397 L517.655765,217.569242 Z" id="Fill-139" fill="#0C0E19"></path>
                        <path d="M552.607255,642.427723 L494.045694,715.583128 L581.896507,764.676509 L552.607255,642.427723 Z" id="Fill-140" fill="#428BC9"></path>
                        <path d="M494.044753,715.583505 L504.422227,795.687986 L581.897448,764.676886 L494.044753,715.583505 Z" id="Fill-141" fill="#3399D4"></path>
                        <path d="M1434.88832,542.227574 L1503.84807,557.260692 L1506.1638,534.311047 L1506.1638,502.985619 L1434.88832,542.227574 Z" id="Fill-143" fill="#141446"></path>
                        <path d="M552.607255,642.427723 L628.179061,637.422957 L630.069297,634.41144 L552.607255,642.427723 Z" id="Fill-146" fill="#3081C3"></path>
                        <path d="M576.226551,431.00113 L520.492814,429.997918 L605.512038,540.223221 L576.226551,431.00113 Z" id="Fill-147" fill="#0C1234"></path>
                        <path d="M520.493567,429.998483 L494.988553,549.24328 L605.510908,540.225667 L520.493567,429.998483 Z" id="Fill-148" fill="#1B1B4F"></path>
                        <path d="M494.98893,549.240457 L552.607255,642.428099 L605.511284,540.222844 L494.98893,549.240457 Z" id="Fill-149" fill="#293680"></path>
                        <path d="M605.511473,540.222844 L552.607443,642.428099 L630.069486,634.411816 L605.511473,540.222844 Z" id="Fill-152" fill="#2A55A5"></path>
                        <path d="M517.655765,217.569242 L546.945017,321.777156 L640.460891,257.650657 L517.655765,217.569242 Z" id="Fill-153" fill="#0D0F1F"></path>
                        <path d="M630.069297,634.411816 L628.179061,637.423334 L641.406951,694.53488 L630.069297,634.411816 Z" id="Fill-154" fill="#366BB3"></path>
                        <path d="M517.655765,217.569242 L640.460891,257.650657 L646.12407,233.601808 L517.655765,217.569242 Z" id="Fill-155" fill="#0C0E19"></path>
                        <path d="M690.525425,305.74572 L777.433002,385.90855 L782.151062,338.814063 L690.525425,305.74572 Z" id="Fill-156" fill="#0D0F1F"></path>
                        <path d="M736.809861,226.585161 L801.991015,263.660705 L833.164855,223.57929 L736.809861,226.585161 Z" id="Fill-157" fill="#0C0D18"></path>
                        <path d="M546.945394,321.77678 L576.227115,431.000753 L644.241741,310.756508 L546.945394,321.77678 Z" id="Fill-159" fill="#0D0F1F"></path>
                        <path d="M640.460138,257.650469 L546.946147,321.776968 L644.242494,310.756697 L640.460138,257.650469 Z" id="Fill-160" fill="#0E0F1C"></path>
                        <path d="M641.406951,694.535633 L581.896507,764.677638 L652.738957,738.622366 L641.406951,694.535633 Z" id="Fill-162" fill="#59B1E3"></path>
                        <path d="M644.242118,310.75632 L576.227492,431.000565 L678.247548,407.95681 L644.242118,310.75632 Z" id="Fill-164" fill="#0D1023"></path>
                        <path d="M658.40929,191.514346 L646.124635,233.602184 L700.917019,215.561313 L658.40929,191.514346 Z" id="Fill-166" fill="#0C0E19"></path>
                        <path d="M736.809861,226.585161 L690.525425,305.746661 L782.151062,338.813122 L736.809861,226.585161 Z" id="Fill-167" fill="#0D0E1B"></path>
                        <path d="M576.226551,431.00113 L605.512038,540.223221 L678.246606,407.955492 L576.226551,431.00113 Z" id="Fill-168" fill="#0D112C"></path>
                        <path d="M700.917207,215.562066 L690.524671,305.74572 L736.809108,226.584219 L700.917207,215.562066 Z" id="Fill-169" fill="#0C0E19"></path>
                        <path d="M644.242118,310.75632 L682.022373,404.945292 L690.524671,305.745908 L644.242118,310.75632 Z" id="Fill-170" fill="#0D1021"></path>
                        <path d="M644.242118,310.75632 L678.247548,407.95681 L682.022373,404.945292 L644.242118,310.75632 Z" id="Fill-171" fill="#0D1023"></path>
                        <path d="M640.460138,257.650469 L690.525048,305.746284 L700.917583,215.56263 L640.460138,257.650469 Z" id="Fill-172" fill="#0D0E1A"></path>
                        <path d="M646.124823,233.601808 L640.459762,257.650657 L700.917207,215.562819 L646.124823,233.601808 Z" id="Fill-173" fill="#0D0E1A"></path>
                        <path d="M640.460138,257.650469 L644.242494,310.756697 L690.525048,305.746284 L640.460138,257.650469 Z" id="Fill-174" fill="#0D101E"></path>
                        <path d="M641.406951,694.535633 L652.738957,738.622366 L724.534055,749.652049 L641.406951,694.535633 Z" id="Fill-177" fill="#4F9CD5"></path>
                        <path d="M517.655012,217.569807 L658.407972,191.514534 L753.814082,0.125072084 L517.655012,217.569807 Z" id="Fill-178" fill="#070911"></path>
                        <path d="M678.246606,407.956245 L605.512038,540.220209 L715.087391,556.256539 L678.246606,407.956245 Z" id="Fill-179" fill="#091339"></path>
                        <path d="M605.511473,540.222844 L630.069486,634.411816 L715.086826,556.257292 L605.511473,540.222844 Z" id="Fill-181" fill="#252C68"></path>
                        <path d="M342.902835,201.532912 L517.655577,217.569242 L753.810882,0.126389623 L342.902835,201.532912 Z" id="Fill-182" fill="#0B0C14"></path>
                        <path d="M1434.88832,542.227574 L1506.1638,502.985619 L1506.1638,498.773259 L1353.64957,390.917644 L1434.88832,542.227574 Z" id="Fill-183" fill="#0F133F"></path>
                        <path d="M1434.88832,542.228138 L1492.5123,657.458207 L1503.84807,557.257493 L1434.88832,542.228138 Z" id="Fill-184" fill="#1D2256"></path>
                        <path d="M715.087015,556.256539 L630.069674,634.411064 L757.592861,718.582976 L715.087015,556.256539 Z" id="Fill-186" fill="#3151A2"></path>
                        <path d="M630.069297,634.411816 L641.406951,694.53488 L757.592484,718.583729 L630.069297,634.411816 Z" id="Fill-187" fill="#3F76BA"></path>
                        <path d="M641.406951,694.535633 L724.534055,749.652049 L757.592484,718.5826 L641.406951,694.535633 Z" id="Fill-188" fill="#3E7DBF"></path>
                        <path d="M785.933983,489.121346 L715.087768,556.257481 L794.434399,587.319401 L785.933983,489.121346 Z" id="Fill-189" fill="#283883"></path>
                        <path d="M690.525425,305.74572 L682.023126,404.946986 L777.433002,385.90855 L690.525425,305.74572 Z" id="Fill-191" fill="#0D0F1F"></path>
                        <path d="M782.150309,338.813875 L777.432249,385.908361 L804.825616,408.955881 L782.150309,338.813875 Z" id="Fill-194" fill="#0D0F22"></path>
                        <path d="M777.432437,385.908361 L682.022561,404.946798 L785.934736,489.120593 L777.432437,385.908361 Z" id="Fill-195" fill="#0F122F"></path>
                        <path d="M715.087015,556.256539 L757.592861,718.582976 L794.433646,587.320342 L715.087015,556.256539 Z" id="Fill-196" fill="#3777BB"></path>
                        <path d="M682.022937,404.946234 L678.24623,407.955869 L785.93323,489.12191 L682.022937,404.946234 Z" id="Fill-197" fill="#0D1129"></path>
                        <path d="M678.246606,407.956245 L715.087391,556.256539 L785.933606,489.122287 L678.246606,407.956245 Z" id="Fill-198" fill="#141446"></path>
                        <path d="M777.432437,385.908361 L785.934736,489.120593 L804.825805,408.955881 L777.432437,385.908361 Z" id="Fill-199" fill="#0E112D"></path>
                        <path d="M736.808167,226.583467 L833.165044,223.579478 L753.810882,0.124883864 L736.808167,226.583467 Z" id="Fill-200" fill="#060608"></path>
                        <path d="M736.809861,226.585161 L782.151062,338.813122 L801.991015,263.660705 L736.809861,226.585161 Z" id="Fill-201" fill="#0C0E19"></path>
                        <path d="M917.624162,785.030038 L924.388724,789.362859 L925.738624,696.540362 L917.624162,785.030038 Z" id="Fill-204" fill="#265AA8"></path>
                        <path d="M816.160258,666.480901 L833.164855,728.610388 L883.227882,625.396274 L816.160258,666.480901 Z" id="Fill-205" fill="#43A1D9"></path>
                        <path d="M816.071959,666.480901 L757.209166,718.845543 L833.165044,728.922833 L816.071959,666.480901 Z" id="Fill-209" fill="#66C4EF"></path>
                        <path d="M804.825428,408.956069 L785.934359,489.120781 L842.611331,437.014001 L804.825428,408.956069 Z" id="Fill-214" fill="#0E122E"></path>
                        <path d="M998.473757,97.3234914 L909.679709,230.594431 L1009.80953,201.533288 L998.473757,97.3234914 Z" id="Fill-215" fill="#020305"></path>
                        <path d="M833.165232,223.579666 L801.989509,263.661081 L909.680274,230.59462 L833.165232,223.579666 Z" id="Fill-218" fill="#0B0D17"></path>
                        <path d="M794.433834,587.320154 L816.160258,666.481654 L883.227882,625.395145 L794.433834,587.320154 Z" id="Fill-220" fill="#2F6EB5"></path>
                        <path d="M1339.47713,582.305789 L1329.08836,701.550586 L1492.51286,657.458207 L1339.47713,582.305789 Z" id="Fill-222" fill="#263C8B"></path>
                        <path d="M970.132071,386.915526 L920.070927,509.16243 L993.750614,431.000377 L970.132071,386.915526 Z" id="Fill-225" fill="#0E1026"></path>
                        <path d="M942.740962,329.796263 L842.611143,437.013812 L970.132447,386.915338 L942.740962,329.796263 Z" id="Fill-226" fill="#0D0F1F"></path>
                        <path d="M842.611896,437.014565 L920.072056,509.162994 L970.131318,386.91609 L842.611896,437.014565 Z" id="Fill-227" fill="#0D1023"></path>
                        <path d="M1177.9504,412.965905 L1250.68685,479.10071 L1294.14158,402.943198 L1177.9504,412.965905 Z" id="Fill-228" fill="#0E1231"></path>
                        <path d="M1056.09133,614.371109 L1082.54523,663.470136 L1188.33822,613.375426 L1056.09133,614.371109 Z" id="Fill-229" fill="#3973B8"></path>
                        <path d="M842.611896,437.014565 L785.934924,489.121346 L920.072056,509.162994 L842.611896,437.014565 Z" id="Fill-230" fill="#0D1231"></path>
                        <path d="M785.933983,489.121346 L794.434399,587.319401 L920.071115,509.162994 L785.933983,489.121346 Z" id="Fill-231" fill="#1F235A"></path>
                        <path d="M794.433834,587.320154 L883.227882,625.395145 L920.07055,509.163747 L794.433834,587.320154 Z" id="Fill-232" fill="#28367E"></path>
                        <path d="M833.165232,728.610012 L870.949252,757.66739 L925.737871,696.541115 L833.165232,728.610012 Z" id="Fill-235" fill="#316FB6"></path>
                        <path d="M883.228071,625.396086 L833.165044,728.6102 L925.737682,696.541303 L883.228071,625.396086 Z" id="Fill-236" fill="#376BB3"></path>
                        <path d="M870.950006,757.666449 L917.624162,785.02985 L925.738624,696.540174 L870.950006,757.666449 Z" id="Fill-237" fill="#2B5DAA"></path>
                        <path d="M1048.54017,541.22455 L1025.86487,551.245374 L1056.09171,614.370544 L1048.54017,541.22455 Z" id="Fill-238" fill="#2B56A5"></path>
                        <path d="M782.150309,338.813875 L804.825616,408.955881 L942.741339,329.796263 L782.150309,338.813875 Z" id="Fill-239" fill="#0E0F1D"></path>
                        <path d="M804.825428,408.956069 L842.611331,437.014001 L942.741151,329.796451 L804.825428,408.956069 Z" id="Fill-240" fill="#0E0F1F"></path>
                        <path d="M909.679709,230.593867 L801.990826,263.660328 L942.740021,329.797016 L909.679709,230.593867 Z" id="Fill-241" fill="#0C0F19"></path>
                        <path d="M801.990262,263.661269 L782.150309,338.813687 L942.741339,329.796074 L801.990262,263.661269 Z" id="Fill-242" fill="#0D0E1A"></path>
                        <path d="M883.228071,625.396086 L975.798827,644.432641 L985.250009,573.291188 L883.228071,625.396086 Z" id="Fill-243" fill="#273A8B"></path>
                        <path d="M833.165232,223.579666 L909.680274,230.59462 L998.474322,97.3236797 L833.165232,223.579666 Z" id="Fill-245" fill="#060608"></path>
                        <path d="M883.228071,625.396086 L925.737682,696.541303 L975.798827,644.432641 L883.228071,625.396086 Z" id="Fill-246" fill="#2B5BA8"></path>
                        <path d="M920.071303,509.163183 L883.228635,625.396463 L985.250574,573.291564 L920.071303,509.163183 Z" id="Fill-248" fill="#242A65"></path>
                        <path d="M925.737871,696.540927 L924.387971,789.361541 L1010.75333,723.591882 L925.737871,696.540927 Z" id="Fill-251" fill="#2651A3"></path>
                        <path d="M998.473757,97.3234914 L1009.80953,201.533288 L1113.71982,168.464944 L998.473757,97.3234914 Z" id="Fill-253" fill="#050608"></path>
                        <path d="M1063.64776,301.736261 L970.131882,386.915149 L1071.21059,383.905514 L1063.64776,301.736261 Z" id="Fill-254" fill="#0D1025"></path>
                        <path d="M975.798638,644.433017 L925.737494,696.54168 L1010.75295,723.592635 L975.798638,644.433017 Z" id="Fill-257" fill="#2857A6"></path>
                        <path d="M909.679709,230.593867 L942.740021,329.797016 L1016.41971,250.637397 L909.679709,230.593867 Z" id="Fill-258" fill="#0B0D16"></path>
                        <path d="M1009.80878,201.5331 L909.678956,230.594243 L1016.42084,250.637774 L1009.80878,201.5331 Z" id="Fill-259" fill="#06090F"></path>
                        <path d="M970.132071,386.915526 L993.750614,431.000377 L1071.21077,383.905891 L970.132071,386.915526 Z" id="Fill-260" fill="#0E1129"></path>
                        <path d="M920.071303,509.163183 L985.250574,573.291564 L1025.8643,551.245374 L920.071303,509.163183 Z" id="Fill-262" fill="#21275F"></path>
                        <path d="M993.750614,431.00113 L920.070927,509.163183 L1025.86581,551.245374 L993.750614,431.00113 Z" id="Fill-263" fill="#0C133C"></path>
                        <path d="M993.750614,431.00113 L1025.86581,551.245374 L1048.54111,541.22455 L993.750614,431.00113 Z" id="Fill-266" fill="#21255D"></path>
                        <path d="M1025.86505,551.245939 L985.251327,573.292129 L1056.09189,614.371109 L1025.86505,551.245939 Z" id="Fill-268" fill="#264A9E"></path>
                        <path d="M985.250762,573.291752 L975.795814,644.433205 L1056.09133,614.370733 L985.250762,573.291752 Z" id="Fill-269" fill="#2D58A7"></path>
                        <path d="M1016.42027,250.637209 L942.740586,329.796827 L1063.64794,301.735131 L1016.42027,250.637209 Z" id="Fill-270" fill="#0D0E1A"></path>
                        <path d="M942.740962,329.796263 L970.132447,386.915338 L1063.64832,301.736449 L942.740962,329.796263 Z" id="Fill-271" fill="#0E0F1D"></path>
                        <path d="M1115.86159,777.841169 L1172.28251,804.758489 L1177.95134,707.563646 L1115.86159,777.841169 Z" id="Fill-272" fill="#58B4E5"></path>
                        <path d="M1237.45971,306.749308 L1177.95115,412.965528 L1294.14045,402.942822 L1237.45971,306.749308 Z" id="Fill-273" fill="#0D1021"></path>
                        <path d="M975.798638,644.433017 L1010.75295,723.592635 L1082.54429,663.469572 L975.798638,644.433017 Z" id="Fill-275" fill="#3089C9"></path>
                        <path d="M1056.09133,614.371109 L975.801462,644.433582 L1082.54523,663.470136 L1056.09133,614.371109 Z" id="Fill-276" fill="#3889C9"></path>
                        <path d="M1082.54466,663.470136 L1010.75333,723.591318 L1100.49061,727.6004 L1082.54466,663.470136 Z" id="Fill-277" fill="#2D99D5"></path>
                        <path d="M1113.71963,168.464756 L1189.28391,322.782439 L1211.0141,204.540853 L1113.71963,168.464756 Z" id="Fill-279" fill="#080B12"></path>
                        <path d="M1168.50392,482.10451 L1103.3303,482.10451 L1188.33822,613.374673 L1168.50392,482.10451 Z" id="Fill-280" fill="#29357F"></path>
                        <path d="M993.750614,431.00113 L1048.54111,541.22455 L1103.32973,482.104698 L993.750614,431.00113 Z" id="Fill-281" fill="#1F2259"></path>
                        <path d="M1071.20983,383.905702 L993.749672,431.000189 L1103.33067,482.103757 L1071.20983,383.905702 Z" id="Fill-282" fill="#121442"></path>
                        <path d="M1063.64776,301.736261 L1071.21059,383.905514 L1112.77131,345.826758 L1063.64776,301.736261 Z" id="Fill-283" fill="#0D1026"></path>
                        <path d="M1016.42027,250.637209 L1063.64794,301.735131 L1113.72039,168.464192 L1016.42027,250.637209 Z" id="Fill-284" fill="#0B0C14"></path>
                        <path d="M1009.80878,201.5331 L1016.42084,250.637774 L1113.71907,168.464756 L1009.80878,201.5331 Z" id="Fill-285" fill="#080B12"></path>
                        <path d="M1100.49118,727.600777 L1115.86159,777.840417 L1177.95134,707.562893 L1100.49118,727.600777 Z" id="Fill-289" fill="#388AC9"></path>
                        <path d="M1103.32992,482.10451 L1168.50354,482.10451 L1177.95096,412.965716 L1103.32992,482.10451 Z" id="Fill-291" fill="#1B1C50"></path>
                        <path d="M1112.77094,345.827323 L1071.21021,383.906079 L1177.95021,412.96534 L1112.77094,345.827323 Z" id="Fill-292" fill="#0E112D"></path>
                        <path d="M1071.20983,383.905702 L1103.33067,482.103757 L1177.94983,412.964963 L1071.20983,383.905702 Z" id="Fill-293" fill="#121441"></path>
                        <path d="M1211.01372,204.541982 L1237.46009,306.74912 L1269.58093,221.575878 L1211.01372,204.541982 Z" id="Fill-295" fill="#080810"></path>
                        <path d="M1082.54466,663.470136 L1100.49061,727.6004 L1177.95077,707.564398 L1082.54466,663.470136 Z" id="Fill-297" fill="#3679BC"></path>
                        <path d="M1048.54017,541.22455 L1056.09171,614.370544 L1188.3386,613.374861 L1048.54017,541.22455 Z" id="Fill-298" fill="#3363AD"></path>
                        <path d="M1103.32992,482.10451 L1048.53754,541.224362 L1188.33785,613.374673 L1103.32992,482.10451 Z" id="Fill-299" fill="#27459B"></path>
                        <path d="M1112.77094,345.827323 L1177.95021,412.96534 L1189.2841,322.781686 L1112.77094,345.827323 Z" id="Fill-300" fill="#0E1024"></path>
                        <path d="M1250.68647,479.101086 L1252.57482,561.264693 L1286.57837,482.105075 L1250.68647,479.101086 Z" id="Fill-301" fill="#1B1D51"></path>
                        <path d="M1082.54466,663.470136 L1177.95077,707.564398 L1188.33578,613.375426 L1082.54466,663.470136 Z" id="Fill-302" fill="#4389C8"></path>
                        <path d="M1063.64776,301.736261 L1112.77131,345.826758 L1189.28259,322.783003 L1063.64776,301.736261 Z" id="Fill-303" fill="#0E101F"></path>
                        <path d="M1113.71963,168.464756 L1063.64719,301.735696 L1189.28391,322.782439 L1113.71963,168.464756 Z" id="Fill-304" fill="#090C13"></path>
                        <path d="M1286.57931,482.10451 L1339.4777,582.305224 L1346.09352,488.112487 L1286.57931,482.10451 Z" id="Fill-305" fill="#161446"></path>
                        <path d="M1286.57931,482.10451 L1252.57388,561.26601 L1339.4777,582.305224 L1286.57931,482.10451 Z" id="Fill-306" fill="#1E2157"></path>
                        <path d="M1189.28353,322.782062 L1177.94964,412.965716 L1237.46009,306.749496 L1189.28353,322.782062 Z" id="Fill-308" fill="#0E0F1F"></path>
                        <path d="M1211.01372,204.541982 L1189.28353,322.781686 L1237.46009,306.74912 L1211.01372,204.541982 Z" id="Fill-309" fill="#0B0C16"></path>
                        <path d="M1177.9504,707.563834 L1172.28157,804.758677 L1237.45896,732.615894 L1177.9504,707.563834 Z" id="Fill-310" fill="#3194D1"></path>
                        <path d="M1252.57482,561.265258 L1188.33879,613.375802 L1255.40641,652.446477 L1252.57482,561.265258 Z" id="Fill-311" fill="#253D8E"></path>
                        <path d="M1177.9504,707.563834 L1237.45896,732.615894 L1255.40679,652.447418 L1177.9504,707.563834 Z" id="Fill-313" fill="#1F57A6"></path>
                        <path d="M1250.68647,479.101086 L1286.57837,482.105075 L1294.1412,402.943574 L1250.68647,479.101086 Z" id="Fill-314" fill="#0B1337"></path>
                        <path d="M1177.9504,412.965905 L1168.50298,482.104698 L1250.68685,479.10071 L1177.9504,412.965905 Z" id="Fill-315" fill="#121343"></path>
                        <path d="M1168.50392,482.10451 L1188.33822,613.374673 L1252.57426,561.26601 L1168.50392,482.10451 Z" id="Fill-316" fill="#293680"></path>
                        <path d="M1250.68647,479.101086 L1168.50449,482.105075 L1252.57482,561.264693 L1250.68647,479.101086 Z" id="Fill-317" fill="#1E1F56"></path>
                        <path d="M1188.33841,613.374861 L1177.94964,707.563834 L1255.40604,652.447418 L1188.33841,613.374861 Z" id="Fill-318" fill="#2457A6"></path>
                        <path d="M1211.01372,204.541982 L1269.58093,221.575878 L1319.64207,91.3089265 L1211.01372,204.541982 Z" id="Fill-319" fill="#000000"></path>
                        <path d="M1113.71963,168.464756 L1211.0141,204.540853 L1319.64245,91.3077971 L1113.71963,168.464756 Z" id="Fill-320" fill="#020305"></path>
                        <path d="M1294.14139,402.943951 L1286.57856,482.105451 L1346.09465,488.113429 L1294.14139,402.943951 Z" id="Fill-321" fill="#0C1234"></path>
                        <path d="M1237.45971,732.615142 L1287.52839,820.799901 L1329.08911,701.551339 L1237.45971,732.615142 Z" id="Fill-323" fill="#124EA1"></path>
                        <path d="M1329.08911,701.551527 L1417.88128,759.671932 L1492.51362,657.457265 L1329.08911,701.551527 Z" id="Fill-324" fill="#194797"></path>
                        <path d="M1255.40623,652.447042 L1329.08968,701.551716 L1339.47657,582.305036 L1255.40623,652.447042 Z" id="Fill-328" fill="#263C89"></path>
                        <path d="M1365.93159,269.673199 L1506.16493,495.742167 L1506.16493,493.011097 L1388.60313,207.545594 L1365.93159,269.673199 Z" id="Fill-330" fill="#0D0E1B"></path>
                        <path d="M1255.40623,652.447042 L1237.46028,732.615518 L1329.08968,701.551716 L1255.40623,652.447042 Z" id="Fill-331" fill="#184B9F"></path>
                        <path d="M1319.64245,91.3083618 L1388.60408,207.545406 L1411.26997,150.428214 L1319.64245,91.3083618 Z" id="Fill-333" fill="#010101"></path>
                        <path d="M1388.60313,207.544842 L1506.16493,493.010344 L1506.16493,489.189481 L1411.26715,150.429531 L1388.60313,207.544842 Z" id="Fill-334" fill="#0C0C16"></path>
                        <path d="M1252.57482,561.265258 L1255.40641,652.446477 L1339.47675,582.306353 L1252.57482,561.265258 Z" id="Fill-335" fill="#27367A"></path>
                        <path d="M1346.09409,488.113429 L1339.47638,582.306165 L1434.88814,542.228515 L1346.09409,488.113429 Z" id="Fill-336" fill="#1D1F55"></path>
                        <path d="M1329.08911,701.551527 L1287.52839,820.798207 L1345.14483,810.771736 L1329.08911,701.551527 Z" id="Fill-338" fill="#114B9B"></path>
                        <path d="M1269.58168,221.576442 L1375.37468,231.593502 L1388.60445,207.546536 L1269.58168,221.576442 Z" id="Fill-339" fill="#010101"></path>
                        <path d="M1353.65202,390.919715 L1506.16436,498.771565 L1506.16436,495.74499 L1365.92915,269.672258 L1353.65202,390.919715 Z" id="Fill-340" fill="#0D0F24"></path>
                        <path d="M1294.14139,402.943951 L1346.09465,488.113429 L1353.65183,390.918585 L1294.14139,402.943951 Z" id="Fill-341" fill="#0E1027"></path>
                        <path d="M1269.58168,221.576442 L1374.43144,234.599373 L1375.37468,231.593502 L1269.58168,221.576442 Z" id="Fill-342" fill="#030305"></path>
                        <path d="M1237.45971,306.749308 L1294.14045,402.942822 L1353.65277,390.919338 L1237.45971,306.749308 Z" id="Fill-343" fill="#0D101E"></path>
                        <path d="M1237.45971,306.749308 L1353.65277,390.919338 L1365.93178,269.671882 L1237.45971,306.749308 Z" id="Fill-344" fill="#090C14"></path>
                        <path d="M1269.58168,221.576442 L1237.45896,306.749684 L1365.93291,269.672258 L1269.58168,221.576442 Z" id="Fill-345" fill="#06060C"></path>
                        <path d="M1269.58168,221.576442 L1365.93291,269.672258 L1374.43144,234.599373 L1269.58168,221.576442 Z" id="Fill-346" fill="#040406"></path>
                        <path d="M1319.64245,91.3083618 L1269.58131,221.575313 L1388.60408,207.545406 L1319.64245,91.3083618 Z" id="Fill-347" fill="#010101"></path>
                        <path d="M1374.4322,234.600126 L1365.93178,269.673011 L1388.60332,207.545406 L1374.4322,234.600126 Z" id="Fill-349" fill="#06060C"></path>
                        <path d="M1375.37543,231.593879 L1374.4322,234.59975 L1388.60144,207.546912 L1375.37543,231.593879 Z" id="Fill-350" fill="#050507"></path>
                        <path d="M1329.08911,701.551527 L1345.14483,810.771736 L1417.88128,759.671932 L1329.08911,701.551527 Z" id="Fill-351" fill="#253D85"></path>
                        <path d="M1353.65259,390.91915 L1346.09352,488.113993 L1434.88757,542.229079 L1353.65259,390.91915 Z" id="Fill-352" fill="#0B1336"></path>
                        <path d="M1417.88147,759.671744 L1473.31585,796.495073 L1492.5138,657.457077 L1417.88147,759.671744 Z" id="Fill-353" fill="#2475BB"></path>
                        <path d="M1434.88832,542.228138 L1339.47657,582.305789 L1492.5123,657.458207 L1434.88832,542.228138 Z" id="Fill-356" fill="#252F6C"></path>
                    </g>
                </g>
            </g>
        </g>
    </g>
</svg>