<?xml version="1.0" encoding="UTF-8" standalone="no"?>
<svg width="155px" height="104px" viewBox="0 0 155 104" version="1.1" xmlns="http://www.w3.org/2000/svg" xmlns:xlink="http://www.w3.org/1999/xlink">
    <!-- Generator: Sketch 3.6.1 (26313) - http://www.bohemiancoding.com/sketch -->
    <title>cloud-2</title>
    <desc>Created with Sketch.</desc>
    <defs>
        <filter x="-50%" y="-50%" width="200%" height="200%" filterUnits="objectBoundingBox" id="filter-1">
            <feOffset dx="3" dy="3" in="SourceAlpha" result="shadowOffsetOuter1"></feOffset>
            <feGaussianBlur stdDeviation="2" in="shadowOffsetOuter1" result="shadowBlurOuter1"></feGaussianBlur>
            <feColorMatrix values="0 0 0 0 0.156862745   0 0 0 0 0.0705882353   0 0 0 0 0.180392157  0 0 0 0.7 0" in="shadowBlurOuter1" type="matrix" result="shadowMatrixOuter1"></feColorMatrix>
            <feMerge>
                <feMergeNode in="shadowMatrixOuter1"></feMergeNode>
                <feMergeNode in="SourceGraphic"></feMergeNode>
            </feMerge>
        </filter>
    </defs>
    <g id="Welcome" stroke="none" stroke-width="1" fill="none" fill-rule="evenodd" filter="url(#filter-1)">
        <g id="homepage" transform="translate(-1108.000000, -523.000000)">
            <g id="cloud-2" transform="translate(1109.000000, 524.000000)">
                <path d="M11.9997,74.0004 L-0.0003,52.9994 L11.9997,74.0004 Z" id="Fill-1" fill="#1E7096"></path>
                <path d="M11.9997,74.0004 L20.9997,70.9994 L-0.0003,52.9994 L11.9997,74.0004 Z" id="Fill-2" fill="#999589"></path>
                <path d="M0,52.9998 L23,43.9998 L12,35.9998 L0,52.9998 Z" id="Fill-3" fill="#D1D1C7"></path>
                <path d="M0,52.9998 L21,70.9998 L23,43.9998 L0,52.9998 Z" id="Fill-4" fill="#D1D1C7"></path>
                <path d="M12,36 L23,44 L33,27 L12,36 Z" id="Fill-5" fill="#FEFEFC"></path>
                <path d="M23,44 L21,71 L39,50 L23,44 Z" id="Fill-6" fill="#D1D1C7"></path>
                <path d="M33,27 L23,44 L43,39 L33,27 Z" id="Fill-7" fill="#D2D2C6"></path>
                <path d="M23,44 L39,50 L43,39 L23,44 Z" id="Fill-8" fill="#FBFBFB"></path>
                <path d="M21,71 L37,90 L48,75 L21,71 Z" id="Fill-9" fill="#94958F"></path>
                <path d="M39,50 L21,71 L48,75 L39,50 Z" id="Fill-10" fill="#D1D1C7"></path>
                <path d="M33,27 L43,39 L50,12 L33,27 Z" id="Fill-11" fill="#D2D2C8"></path>
                <path d="M50,12 L43,39 L55,43 L50,12 Z" id="Fill-12" fill="#FCFCFC"></path>
                <path d="M43,39 L39,50 L55,43 L43,39 Z" id="Fill-13" fill="#FFFFFB"></path>
                <path d="M39,50 L48,75 L55,43 L39,50 Z" id="Fill-14" fill="#D1D1C7"></path>
                <path d="M50,12 L55,43 L71,15 L50,12 Z" id="Fill-15" fill="#FFFFFF"></path>
                <path d="M55,43 L48,75 L75,81 L55,43 Z" id="Fill-16" fill="#D1D1C7"></path>
                <path d="M48,75 L37,90 L75,81 L48,75 Z" id="Fill-17" fill="#93968F"></path>
                <path d="M71,15 L55,43 L83,37 L71,15 Z" id="Fill-18" fill="#E2E0D4"></path>
                <path d="M55,43 L75,81 L87,61 L55,43 Z" id="Fill-19" fill="#D1D1C7"></path>
                <path d="M83,37 L55,43 L87,61 L83,37 Z" id="Fill-20" fill="#FFFFFF"></path>
                <path d="M36.9999,89.9997 L93.9999,95.9997 L74.9999,80.9997 L36.9999,89.9997 Z" id="Fill-21" fill="#969791"></path>
                <path d="M87,61 L75,81 L96,75 L87,61 Z" id="Fill-22" fill="#D1D1C7"></path>
                <path d="M74.9997,80.9997 L93.9997,95.9997 L96.0007,75.0007 L74.9997,80.9997 Z" id="Fill-23" fill="#94958F"></path>
                <path d="M71,15 L83,37 L103,15 L71,15 Z" id="Fill-24" fill="#D1D1C7"></path>
                <path d="M102.9996,-0.0003 L71.0006,14.9997 L102.9996,14.9997 L102.9996,-0.0003 Z" id="Fill-25" fill="#FEFEFE"></path>
                <path d="M87,61 L96,75 L105,49 L87,61 Z" id="Fill-26" fill="#FFFFFF"></path>
                <path d="M83,37 L87,61 L105,49 L83,37 Z" id="Fill-27" fill="#FFFFFF"></path>
                <path d="M93.9996,96 L110.9996,89 L96.0006,75 L93.9996,96 Z" id="Fill-28" fill="#94958F"></path>
                <path d="M103,15 L83,37 L113,32 L103,15 Z" id="Fill-29" fill="#D1D1C7"></path>
                <path d="M83,37 L105,49 L113,32 L83,37 Z" id="Fill-30" fill="#D1D1C7"></path>
                <path d="M105,49 L96,75 L119,79 L105,49 Z" id="Fill-31" fill="#FFFFFF"></path>
                <path d="M96,75 L111,89 L119,79 L96,75 Z" id="Fill-32" fill="#D1D1C7"></path>
                <path d="M102.9996,-0.0003 L102.9996,14.9997 L128.9996,12.0007 L102.9996,-0.0003 Z" id="Fill-33" fill="#F6FEFB"></path>
                <path d="M103,15 L113,32 L129,12 L103,15 Z" id="Fill-34" fill="#FFFFFF"></path>
                <path d="M113,32 L105,49 L131,60 L113,32 Z" id="Fill-35" fill="#D1D1C7"></path>
                <path d="M105,49 L119,79 L131,60 L105,49 Z" id="Fill-36" fill="#FFFFFF"></path>
                <path d="M129,12 L113,32 L139,40 L129,12 Z" id="Fill-37" fill="#FFFFFF"></path>
                <path d="M113,32 L131,60 L139,40 L113,32 Z" id="Fill-38" fill="#E3E1D5"></path>
                <path d="M139,40 L131,60 L146,50 L139,40 Z" id="Fill-39" fill="#E2E0D4"></path>
                <path d="M118.9998,78.9999 L146.9998,75.9999 L131.0008,59.9999 L118.9998,78.9999 Z" id="Fill-40" fill="#CED3CF"></path>
                <path d="M131.0004,60 L146.9994,76 L145.9994,50 L131.0004,60 Z" id="Fill-41" fill="#D1D1C7"></path>
            </g>
        </g>
    </g>
</svg>