<?xml version="1.0" encoding="UTF-8" standalone="no"?>
<svg width="125px" height="94px" viewBox="0 0 125 94" version="1.1" xmlns="http://www.w3.org/2000/svg" xmlns:xlink="http://www.w3.org/1999/xlink">
    <!-- Generator: Sketch 3.6.1 (26313) - http://www.bohemiancoding.com/sketch -->
    <title>cloud-3</title>
    <desc>Created with Sketch.</desc>
    <defs>
        <filter x="-50%" y="-50%" width="200%" height="200%" filterUnits="objectBoundingBox" id="filter-1">
            <feOffset dx="3" dy="3" in="SourceAlpha" result="shadowOffsetOuter1"></feOffset>
            <feGaussianBlur stdDeviation="2" in="shadowOffsetOuter1" result="shadowBlurOuter1"></feGaussianBlur>
            <feColorMatrix values="0 0 0 0 0.156862745   0 0 0 0 0.0705882353   0 0 0 0 0.180392157  0 0 0 0.7 0" in="shadowBlurOuter1" type="matrix" result="shadowMatrixOuter1"></feColorMatrix>
            <feMerge>
                <feMergeNode in="shadowMatrixOuter1"></feMergeNode>
                <feMergeNode in="SourceGraphic"></feMergeNode>
            </feMerge>
        </filter>
    </defs>
    <g id="Welcome" stroke="none" stroke-width="1" fill="none" fill-rule="evenodd" filter="url(#filter-1)">
        <g id="homepage" transform="translate(-172.000000, -387.000000)">
            <g id="cloud-3" transform="translate(173.000000, 388.000000)">
                <path d="M0,62.9996 L14,64.0006 L16,41.9996 L0,62.9996 Z" id="Fill-1" fill="#D1D1C7"></path>
                <path d="M18,76.0001 L14,64.0001 L0,62.9991 L18,76.0001 Z" id="Fill-2" fill="#A6BAC1"></path>
                <path d="M16,42 L14,64 L36,50 L16,42 Z" id="Fill-3" fill="#E4E2D6"></path>
                <path d="M14,64 L18,76 L36,50 L14,64 Z" id="Fill-4" fill="#D1D1C7"></path>
                <path d="M25,20 L16,42 L40,29 L25,20 Z" id="Fill-5" fill="#D2D2C8"></path>
                <path d="M16,42 L36,50 L40,29 L16,42 Z" id="Fill-6" fill="#FFFFFF"></path>
                <path d="M25,20 L40,29 L41,10 L25,20 Z" id="Fill-7" fill="#D1D1C7"></path>
                <path d="M36,50 L18,76 L49,60 L36,50 Z" id="Fill-8" fill="#D1D1C7"></path>
                <path d="M18,76.0001 L44,86.0001 L49,60.0001 L18,76.0001 Z" id="Fill-9" fill="#D1D1C7"></path>
                <path d="M44.0001,86 L52.0001,79 L48.9991,60 L44.0001,86 Z" id="Fill-10" fill="#949391"></path>
                <path d="M41,10 L40,29 L53,9 L41,10 Z" id="Fill-11" fill="#FEFEFE"></path>
                <path d="M49,60 L52,79 L59,56 L49,60 Z" id="Fill-12" fill="#E3E1D5"></path>
                <path d="M40,29 L36,50 L59,56 L40,29 Z" id="Fill-13" fill="#FFFFFF"></path>
                <path d="M36,50 L49,60 L59,56 L36,50 Z" id="Fill-14" fill="#FCFCFE"></path>
                <path d="M60.0003,-0.0004 L53.0003,8.9996 L63.0003,15.9996 L60.0003,-0.0004 Z" id="Fill-15" fill="#D5D3C6"></path>
                <path d="M53,9 L40,29 L63,16 L53,9 Z" id="Fill-16" fill="#CDCDC1"></path>
                <path d="M40,29 L59,56 L74,32 L40,29 Z" id="Fill-17" fill="#FEFEFE"></path>
                <path d="M63,16 L40,29 L74,32 L63,16 Z" id="Fill-18" fill="#9B9B93"></path>
                <path d="M63,16 L74,32 L80,22 L63,16 Z" id="Fill-19" fill="#C9C9C1"></path>
                <path d="M60.0003,-0.0004 L63.0003,15.9996 L81.0003,6.9996 L60.0003,-0.0004 Z" id="Fill-20" fill="#FFFFFF"></path>
                <path d="M63,16 L80,22 L81,7 L63,16 Z" id="Fill-21" fill="#FBFBFB"></path>
                <path d="M59,56 L52,79 L82,65 L59,56 Z" id="Fill-22" fill="#D0D0C6"></path>
                <path d="M74,32 L59,56 L82,65 L74,32 Z" id="Fill-23" fill="#FFFFFF"></path>
                <path d="M82,65 L52,79 L85,82 L82,65 Z" id="Fill-24" fill="#929791"></path>
                <path d="M81,7 L80,22 L97,18 L81,7 Z" id="Fill-25" fill="#FFFFFF"></path>
                <path d="M80,22 L74,32 L97,18 L80,22 Z" id="Fill-26" fill="#9F9F95"></path>
                <path d="M74,32 L82,65 L111,56 L74,32 Z" id="Fill-27" fill="#FFFFFF"></path>
                <path d="M97,18 L74,32 L111,56 L97,18 Z" id="Fill-28" fill="#9B9B91"></path>
                <path d="M82,65 L85,82 L112,75 L82,65 Z" id="Fill-29" fill="#93948E"></path>
                <path d="M111,56 L82,65 L112,75 L111,56 Z" id="Fill-30" fill="#D1D1C7"></path>
                <path d="M111.9996,75.0002 L116.9996,61.0002 L110.9996,56.0002 L111.9996,75.0002 Z" id="Fill-31" fill="#CDD2BC"></path>
            </g>
        </g>
    </g>
</svg>