<?xml version="1.0" encoding="UTF-8" standalone="no"?>
<svg width="120px" height="78px" viewBox="0 0 120 78" version="1.1" xmlns="http://www.w3.org/2000/svg" xmlns:xlink="http://www.w3.org/1999/xlink">
    <!-- Generator: Sketch 3.6.1 (26313) - http://www.bohemiancoding.com/sketch -->
    <title>cloud-1</title>
    <desc>Created with Sketch.</desc>
    <defs>
        <filter x="-50%" y="-50%" width="200%" height="200%" filterUnits="objectBoundingBox" id="filter-1">
            <feOffset dx="3" dy="3" in="SourceAlpha" result="shadowOffsetOuter1"></feOffset>
            <feGaussianBlur stdDeviation="2" in="shadowOffsetOuter1" result="shadowBlurOuter1"></feGaussianBlur>
            <feColorMatrix values="0 0 0 0 0.156862745   0 0 0 0 0.0705882353   0 0 0 0 0.180392157  0 0 0 0.7 0" in="shadowBlurOuter1" type="matrix" result="shadowMatrixOuter1"></feColorMatrix>
            <feMerge>
                <feMergeNode in="shadowMatrixOuter1"></feMergeNode>
                <feMergeNode in="SourceGraphic"></feMergeNode>
            </feMerge>
        </filter>
    </defs>
    <g id="Welcome" stroke="none" stroke-width="1" fill="none" fill-rule="evenodd" filter="url(#filter-1)">
        <g id="homepage" transform="translate(-965.000000, -198.000000)">
            <g id="cloud-1" transform="translate(966.000000, 199.000000)">
                <path d="M0,60.0001 L19,54.0001 L2,42.0001 L0,60.0001 Z" id="Fill-1" fill="#D2D2C8"></path>
                <path d="M0,60.0001 L19,70.0001 L19,54.0001 L0,60.0001 Z" id="Fill-2" fill="#D3CFC4"></path>
                <path d="M2,42 L19,54 L20,35 L2,42 Z" id="Fill-3" fill="#FFFFFF"></path>
                <path d="M25,18 L20,35 L39,29 L25,18 Z" id="Fill-4" fill="#D1D1C7"></path>
                <path d="M37,12 L25,18 L39,29 L37,12 Z" id="Fill-5" fill="#FFFFFF"></path>
                <path d="M20,35 L19,54 L42,42 L20,35 Z" id="Fill-6" fill="#D3D3CB"></path>
                <path d="M39,29 L20,35 L42,42 L39,29 Z" id="Fill-7" fill="#D1D1C7"></path>
                <path d="M42,42 L19,54 L43,60 L42,42 Z" id="Fill-8" fill="#FCFCFC"></path>
                <path d="M18.9999,70 L42.9999,60 L18.9999,54 L18.9999,70 Z" id="Fill-9" fill="#D1D1C7"></path>
                <path d="M18.9999,70 L42.9999,70 L42.9999,60 L18.9999,70 Z" id="Fill-10" fill="#D0D0C6"></path>
                <path d="M37,12 L39,29 L44,13 L37,12 Z" id="Fill-11" fill="#F7FFF7"></path>
                <path d="M39,29 L42,42 L58,32 L39,29 Z" id="Fill-12" fill="#D0D0C6"></path>
                <path d="M44,13 L39,29 L58,32 L44,13 Z" id="Fill-13" fill="#FFFFFF"></path>
                <path d="M42,42 L43,60 L65,51 L42,42 Z" id="Fill-14" fill="#FEFEFE"></path>
                <path d="M43.0002,70 L65.9992,65 L43.0002,60 L43.0002,70 Z" id="Fill-15" fill="#D1D1C7"></path>
                <path d="M65,51 L43,60 L66,65 L65,51 Z" id="Fill-16" fill="#FFFFFF"></path>
                <path d="M58,32 L42,42 L66,40 L58,32 Z" id="Fill-17" fill="#D1D1C7"></path>
                <path d="M42,42 L65,51 L66,40 L42,42 Z" id="Fill-18" fill="#D3D3C9"></path>
                <path d="M58,32 L66,40 L72,26 L58,32 Z" id="Fill-19" fill="#FDFDFD"></path>
                <path d="M44,13 L58,32 L72,26 L44,13 Z" id="Fill-20" fill="#E1DFD3"></path>
                <path d="M60.0003,-0.0002 L44.0003,13.0008 L72.0003,25.9998 L60.0003,-0.0002 Z" id="Fill-21" fill="#D1D1C7"></path>
                <path d="M60.0003,-0.0002 L72.0003,25.9998 L73.9993,3.0008 L60.0003,-0.0002 Z" id="Fill-22" fill="#CFCFC5"></path>
                <path d="M74,3 L72,26 L80,14 L74,3 Z" id="Fill-23" fill="#CDCDC1"></path>
                <path d="M66,40 L65,51 L84,42 L66,40 Z" id="Fill-24" fill="#D1D1C7"></path>
                <path d="M72,26 L66,40 L84,42 L72,26 Z" id="Fill-25" fill="#FDFFFE"></path>
                <path d="M65,51 L66,65 L84,42 L65,51 Z" id="Fill-26" fill="#D0D0C6"></path>
                <path d="M80,14 L72,26 L92,17 L80,14 Z" id="Fill-27" fill="#E1DFD3"></path>
                <path d="M72,26 L84,42 L92,38 L72,26 Z" id="Fill-28" fill="#FFFFFF"></path>
                <path d="M92,17 L72,26 L92,38 L92,17 Z" id="Fill-29" fill="#F6F6F3"></path>
                <path d="M84,42 L66,65 L96,65 L84,42 Z" id="Fill-30" fill="#D1D1C7"></path>
                <path d="M92,38 L84,42 L96,65 L92,38 Z" id="Fill-31" fill="#DFDFD3"></path>
                <path d="M92,17 L92,38 L99,29 L92,17 Z" id="Fill-32" fill="#FAF9F4"></path>
                <path d="M92,38 L96,65 L109,56 L92,38 Z" id="Fill-33" fill="#E1DFD3"></path>
                <path d="M91.9998,37.9996 L111.9998,37.9996 L98.9998,28.9996 L91.9998,37.9996 Z" id="Fill-34" fill="#FFFFFF"></path>
                <path d="M91.9998,37.9996 L108.9998,55.9996 L111.9998,37.9996 L91.9998,37.9996 Z" id="Fill-35" fill="#FBFFFC"></path>
            </g>
        </g>
    </g>
</svg>