<?xml version="1.0" encoding="UTF-8" standalone="no"?>
<svg width="54px" height="54px" viewBox="0 0 54 54" version="1.1" xmlns="http://www.w3.org/2000/svg" xmlns:xlink="http://www.w3.org/1999/xlink">
    <!-- Generator: Sketch 3.6.1 (26313) - http://www.bohemiancoding.com/sketch -->
    <title>icon-pin</title>
    <desc>Created with Sketch.</desc>
    <defs></defs>
    <g id="Welcome" stroke="none" stroke-width="1" fill="none" fill-rule="evenodd">
        <g id="contact" transform="translate(-116.000000, -260.000000)" stroke="#FFFFFF">
            <g id="icon-pin" transform="translate(117.000000, 261.000000)">
                <circle id="Oval-1" cx="26" cy="26" r="26"></circle>
                <path d="M37.041,21.691 C37.041,24.47 35.378,28.546 33.391,32.138 C31.435,35.674 30.164,37.1 28.418,39.321 C28.098,39.729 26.587,41.227 26.021,41.227 C25.405,41.227 24.053,39.529 23.681,39.116 C22.086,37.345 21.489,36.351 19.492,32.938 C17.324,29.233 15,24.504 15,21.691 C15,15.787 19.935,11 26.021,11 C32.107,11 37.041,15.787 37.041,21.691 L37.041,21.691 Z" id="Stroke-1"></path>
                <path d="M31.871,22.273 C31.871,25.186 29.438,27.546 26.435,27.546 C23.433,27.546 21,25.186 21,22.273 C21,19.36 23.433,17 26.435,17 C29.438,17 31.871,19.36 31.871,22.273 L31.871,22.273 Z" id="Stroke-3"></path>
            </g>
        </g>
    </g>
</svg>