<?xml version="1.0" encoding="UTF-8" standalone="no"?>
<svg width="54px" height="54px" viewBox="0 0 54 54" version="1.1" xmlns="http://www.w3.org/2000/svg" xmlns:xlink="http://www.w3.org/1999/xlink">
    <!-- Generator: Sketch 3.6.1 (26313) - http://www.bohemiancoding.com/sketch -->
    <title>icon-phone</title>
    <desc>Created with Sketch.</desc>
    <defs></defs>
    <g id="Welcome" stroke="none" stroke-width="1" fill="none" fill-rule="evenodd">
        <g id="contact" transform="translate(-116.000000, -412.000000)" stroke="#FFFFFF">
            <g id="icon-phone" transform="translate(117.000000, 413.000000)">
                <circle id="Oval-1" cx="26" cy="26" r="26"></circle>
                <path d="M31.4339,19.7554 L28.8809,10.7474 C28.8809,10.7474 24.5209,12.3284 22.8469,15.2824 C22.8469,15.2824 21.0249,23.5454 23.4609,29.3554 C25.9069,35.1864 31.4189,37.8744 33.3229,38.3764 C33.3229,38.3764 38.6939,39.3504 41.2819,36.4724 L34.9339,29.2674 L32.2949,30.0934 C32.2949,30.0934 29.2569,26.6314 28.8809,21.1134 L31.4339,19.7554 L31.4339,19.7554 Z" id="Stroke-1"></path>
                <path d="M27.4525,11.3833 L30.0885,20.5723" id="Stroke-3"></path>
                <path d="M33.1703,29.6074 L39.7373,37.6384" id="Stroke-5"></path>
                <path d="M26.0497,38.0606 C26.0497,38.8046 25.6497,39.4086 25.1557,39.4086 C24.6637,39.4086 24.2627,38.8046 24.2627,38.0606 C24.2627,37.3156 24.6637,36.7126 25.1557,36.7126 C25.6497,36.7126 26.0497,37.3156 26.0497,38.0606 L26.0497,38.0606 Z" id="Stroke-7"></path>
                <path d="M25.2879,38.0606 C25.2879,38.8046 24.8879,39.4086 24.3949,39.4086 C23.9009,39.4086 23.5009,38.8046 23.5009,38.0606 C23.5009,37.3156 23.9009,36.7126 24.3949,36.7126 C24.8879,36.7126 25.2879,37.3156 25.2879,38.0606 L25.2879,38.0606 Z" id="Stroke-9"></path>
                <path d="M24.263,38.0606 C24.263,38.8046 23.863,39.4086 23.37,39.4086 C22.876,39.4086 22.477,38.8046 22.477,38.0606 C22.477,37.3156 22.876,36.7126 23.37,36.7126 C23.863,36.7126 24.263,37.3156 24.263,38.0606 L24.263,38.0606 Z" id="Stroke-11"></path>
                <path d="M23.5013,38.0606 C23.5013,38.8046 23.1013,39.4086 22.6083,39.4086 C22.1153,39.4086 21.7153,38.8046 21.7153,38.0606 C21.7153,37.3156 22.1153,36.7126 22.6083,36.7126 C23.1013,36.7126 23.5013,37.3156 23.5013,38.0606 L23.5013,38.0606 Z" id="Stroke-13"></path>
                <path d="M22.3368,38.0606 C22.3368,38.8046 21.9368,39.4086 21.4428,39.4086 C20.9498,39.4086 20.5498,38.8046 20.5498,38.0606 C20.5498,37.3156 20.9498,36.7126 21.4428,36.7126 C21.9368,36.7126 22.3368,37.3156 22.3368,38.0606 L22.3368,38.0606 Z" id="Stroke-15"></path>
                <path d="M21.5746,38.0606 C21.5746,38.8046 21.1756,39.4086 20.6816,39.4086 C20.1886,39.4086 19.7886,38.8046 19.7886,38.0606 C19.7886,37.3156 20.1886,36.7126 20.6816,36.7126 C21.1756,36.7126 21.5746,37.3156 21.5746,38.0606 L21.5746,38.0606 Z" id="Stroke-17"></path>
                <path d="M20.5502,38.0606 C20.5502,38.8046 20.1502,39.4086 19.6572,39.4086 C19.1632,39.4086 18.7632,38.8046 18.7632,38.0606 C18.7632,37.3156 19.1632,36.7126 19.6572,36.7126 C20.1502,36.7126 20.5502,37.3156 20.5502,38.0606 L20.5502,38.0606 Z" id="Stroke-19"></path>
                <path d="M19.7884,38.0606 C19.7884,38.8046 19.3884,39.4086 18.8954,39.4086 C18.4024,39.4086 18.0014,38.8046 18.0014,38.0606 C18.0014,37.3156 18.4024,36.7126 18.8954,36.7126 C19.3884,36.7126 19.7884,37.3156 19.7884,38.0606 L19.7884,38.0606 Z" id="Stroke-21"></path>
                <path d="M18.5843,38.0606 C18.5843,38.8046 18.1853,39.4086 17.6923,39.4086 C17.1983,39.4086 16.7983,38.8046 16.7983,38.0606 C16.7983,37.3156 17.1983,36.7126 17.6923,36.7126 C18.1853,36.7126 18.5843,37.3156 18.5843,38.0606 L18.5843,38.0606 Z" id="Stroke-23"></path>
                <path d="M31.7372,37.6387 C31.7372,37.6387 29.7552,39.9857 25.5872,39.4087" id="Stroke-25"></path>
                <path d="M17.4447,39.3501 C17.4447,39.3501 13.5857,37.6391 12.4177,39.4091" id="Stroke-27"></path>
            </g>
        </g>
    </g>
</svg>