<?xml version="1.0" encoding="UTF-8" standalone="no"?>
<svg width="150px" height="50px" viewBox="0 0 150 50" version="1.1" xmlns="http://www.w3.org/2000/svg" xmlns:xlink="http://www.w3.org/1999/xlink">
    <!-- Generator: Sketch 3.6.1 (26313) - http://www.bohemiancoding.com/sketch -->
    <title>logo</title>
    <desc>Created with Sketch.</desc>
    <defs></defs>
    <g id="Welcome" stroke="none" stroke-width="1" fill="none" fill-rule="evenodd">
        <g id="homepage" transform="translate(-120.000000, -68.000000)">
            <g id="logo" transform="translate(120.000000, 68.000000)">
                <path d="M31.8313636,12.9952053 C30.465,14.3493895 28.2490909,14.3493895 26.8813636,12.9952053 C25.5136364,11.6423632 25.5136364,9.44667895 26.8813636,8.09383684 C28.2490909,6.73965263 30.465,6.73965263 31.8313636,8.09383684 C33.1977273,9.44667895 33.1977273,11.6423632 31.8313636,12.9952053 M39.9436364,0.190178947 C21.1840909,-0.633873684 14.7736364,15.6378105 13.9568182,21.3981263 C14.3209091,22.4986526 14.8581818,23.4287316 15.5454545,24.2031263 C16.3322727,24.8795474 17.2772727,25.4083368 18.3954545,25.7666789 C24.2468182,24.9627579 40.7795455,18.6535211 39.9436364,0.190178947" id="Fill-3" fill="#D82487"></path>
                <path d="M13.1652273,25.1672947 C14.3788636,25.1672947 15.3634091,26.1362947 15.3634091,27.3321105 C15.3634091,28.5265842 14.3788636,29.4955842 13.1652273,29.4955842 C11.9515909,29.4955842 10.9670455,28.5265842 10.9670455,27.3321105 C10.9670455,26.1362947 11.9515909,25.1672947 13.1652273,25.1672947" id="Fill-5" fill="#FFFFFF"></path>
                <path d="M7.8525,27.6921974 C9.06613636,27.6921974 10.0506818,28.6611974 10.0506818,29.8570132 C10.0506818,31.0514868 9.06613636,32.0204868 7.8525,32.0204868 C6.63886364,32.0204868 5.65431818,31.0514868 5.65431818,29.8570132 C5.65431818,28.6611974 6.63886364,27.6921974 7.8525,27.6921974" id="Fill-7" fill="#FFFFFF"></path>
                <path d="M14.2651364,30.5782605 C15.4787727,30.5782605 16.4633182,31.5459184 16.4633182,32.7417342 C16.4633182,33.9362079 15.4787727,34.9052079 14.2651364,34.9052079 C13.0501364,34.9052079 12.0669545,33.9362079 12.0669545,32.7417342 C12.0669545,31.5459184 13.0501364,30.5782605 14.2651364,30.5782605" id="Fill-9" fill="#FFFFFF"></path>
                <path d="M7.60881818,32.3745342 C8.24290909,32.3745342 8.757,32.88185 8.757,33.5059289 C8.757,34.13135 8.24290909,34.6373237 7.60881818,34.6373237 C6.97472727,34.6373237 6.45927273,34.13135 6.45927273,33.5059289 C6.45927273,32.88185 6.97472727,32.3745342 7.60881818,32.3745342" id="Fill-11" fill="#FFFFFF"></path>
                <path d="M10.7502273,34.1785921 C11.3843182,34.1785921 11.8984091,34.6845658 11.8984091,35.3099868 C11.8984091,35.9340658 11.3843182,36.4400395 10.7502273,36.4400395 C10.1147727,36.4400395 9.60068182,35.9340658 9.60068182,35.3099868 C9.60068182,34.6845658 10.1147727,34.1785921 10.7502273,34.1785921" id="Fill-13" fill="#FFFFFF"></path>
                <path d="M7.74,36.2396632 C8.37272727,36.2396632 8.88818182,36.7456368 8.88818182,37.3697158 C8.88818182,37.9951368 8.37272727,38.5024526 7.74,38.5024526 C7.10454545,38.5024526 6.59045455,37.9951368 6.59045455,37.3697158 C6.59045455,36.7456368 7.10454545,36.2396632 7.74,36.2396632" id="Fill-15" fill="#FFFFFF"></path>
                <path d="M4.44272727,36.0712289 C4.87090909,36.0712289 5.22,36.4134658 5.22,36.8362289 C5.22,37.2589921 4.87090909,37.6039132 4.44272727,37.6039132 C4.01181818,37.6039132 3.66409091,37.2589921 3.66409091,36.8362289 C3.66409091,36.4134658 4.01181818,36.0712289 4.44272727,36.0712289" id="Fill-17" fill="#FFFFFF"></path>
                <path d="M9.93859091,38.7750342 C10.3681364,38.7750342 10.7172273,39.1186132 10.7172273,39.5413763 C10.7172273,39.9654816 10.3681364,40.3077184 9.93859091,40.3077184 C9.50904545,40.3077184 9.15995455,39.9654816 9.15995455,39.5413763 C9.15995455,39.1186132 9.50904545,38.7750342 9.93859091,38.7750342" id="Fill-19" fill="#FFFFFF"></path>
                <path d="M7.19072727,40.5792263 C7.62027273,40.5792263 7.968,40.9214632 7.968,41.3442263 C7.968,41.7683316 7.62027273,42.1119105 7.19072727,42.1119105 C6.76118182,42.1119105 6.41209091,41.7683316 6.41209091,41.3442263 C6.41209091,40.9214632 6.76118182,40.5792263 7.19072727,40.5792263" id="Fill-21" fill="#FFFFFF"></path>
                <path d="M4.785,38.7750342 C5.21454545,38.7750342 5.565,39.1186132 5.565,39.5413763 C5.565,39.9654816 5.21454545,40.3077184 4.785,40.3077184 C4.35681818,40.3077184 4.00772727,39.9654816 4.00772727,39.5413763 C4.00772727,39.1186132 4.35681818,38.7750342 4.785,38.7750342" id="Fill-23" fill="#FFFFFF"></path>
                <path d="M4.44272727,43.0582289 C4.87090909,43.0582289 5.22,43.4018079 5.22,43.8245711 C5.22,44.2486763 4.87090909,44.5909132 4.44272727,44.5909132 C4.01181818,44.5909132 3.66409091,44.2486763 3.66409091,43.8245711 C3.66409091,43.4018079 4.01181818,43.0582289 4.44272727,43.0582289" id="Fill-25" fill="#FFFFFF"></path>
                <path d="M6.27381818,46.6644658 C6.70472727,46.6644658 7.05381818,47.0080447 7.05381818,47.4308079 C7.05381818,47.8535711 6.70472727,48.1958079 6.27381818,48.1958079 C5.84427273,48.1958079 5.49518182,47.8535711 5.49518182,47.4308079 C5.49518182,47.0080447 5.84427273,46.6644658 6.27381818,46.6644658" id="Fill-27" fill="#FFFFFF"></path>
                <path d="M1.69281818,48.4686579 C2.12372727,48.4686579 2.47281818,48.8108947 2.47281818,49.2336579 C2.47281818,49.6564211 2.12372727,50 1.69281818,50 C1.26463636,50 0.914181818,49.6564211 0.914181818,49.2336579 C0.914181818,48.8108947 1.26463636,48.4686579 1.69281818,48.4686579" id="Fill-29" fill="#FFFFFF"></path>
                <path d="M49.0465909,32.43815 C48.5611364,35.1545711 46.8156818,36.5127816 43.8143182,36.5127816 L37.0261364,36.5127816 L37.3247727,34.8432026 L44.1129545,34.8432026 C45.0265909,34.8432026 45.7138636,34.7009395 46.1815909,34.4164132 C46.7911364,34.0406237 47.1811364,33.38165 47.3488636,32.43815 C47.5834091,31.1309395 46.8347727,30.4786763 45.1029545,30.4786763 L42.1752273,30.4786763 C40.9765909,30.4786763 40.0097727,30.2008605 39.2775,29.6438868 C38.4579545,28.99565 38.1525,28.0977816 38.3570455,26.9502816 C38.5834091,25.6887026 39.2638636,24.76265 40.3956818,24.1721237 C41.2384091,23.7292289 42.1670455,23.5064395 43.1829545,23.5064395 L50.1102273,23.5064395 L49.8102273,25.1773605 L42.8829545,25.1773605 C42.1329545,25.1773605 41.5138636,25.3142553 41.0270455,25.5880447 C40.4843182,25.9047816 40.1611364,26.3597553 40.0534091,26.9502816 C39.9565909,27.4951763 40.1134091,27.9447816 40.5238636,28.2964132 C40.9356818,28.6359658 41.5875,28.8077553 42.4752273,28.8077553 L45.4015909,28.8077553 C46.5102273,28.8077553 47.4075,29.0520184 48.0934091,29.5405447 C48.9606818,30.1874395 49.2770455,31.1537553 49.0465909,32.43815" id="Fill-33" fill="#FFFFFF"></path>
                <path d="M57.4314545,31.8417184 C57.591,30.9559289 57.4519091,30.2459553 57.0169091,29.7104553 C56.5900909,29.1883763 55.9682727,28.9266658 55.1487273,28.9266658 L52.3246364,28.9266658 L51.2637273,34.8587711 L54.0850909,34.8587711 C54.9046364,34.8587711 55.6314545,34.5809553 56.2628182,34.0226395 C56.8805455,33.4670079 57.2705455,32.7395868 57.4314545,31.8417184 M59.1291818,31.8417184 C58.8932727,33.1596658 58.2728182,34.2682447 57.2691818,35.1661132 C56.2655455,36.0639816 55.1050909,36.5122447 53.7891818,36.5122447 L50.9664545,36.5122447 L50.5764545,38.6945079 L48.8787273,38.6945079 L50.9282727,27.2557447 L55.4487273,27.2557447 C56.7646364,27.2557447 57.7655455,27.6946132 58.4514545,28.5696658 C59.1400909,29.4326395 59.3650909,30.5237711 59.1291818,31.8417184" id="Fill-35" fill="#FFFFFF"></path>
                <path d="M66.8145,34.8589053 L67.2617727,32.3706421 L62.9663182,32.3706421 C62.5845,32.3706421 62.2381364,32.4672737 61.9258636,32.6605368 C61.5754091,32.8752737 61.3626818,33.1933526 61.2876818,33.6147737 C61.2126818,34.0348526 61.3122273,34.3529316 61.5849545,34.5690105 C61.8263182,34.7622737 62.1385909,34.8589053 62.5204091,34.8589053 L66.8145,34.8589053 Z M68.1985909,36.5123789 L62.2231364,36.5123789 C61.5304091,36.5123789 60.9304091,36.3244842 60.4204091,35.9500368 C59.6799545,35.4386947 59.4031364,34.6602737 59.5913182,33.6147737 C59.7781364,32.5692737 60.3345,31.7854842 61.2590455,31.2620632 C61.9013182,30.8983526 62.5695,30.7171684 63.2622273,30.7171684 L67.5045,30.7171684 C67.5549545,29.5347737 66.7940455,28.9442474 65.2245,28.9442474 L60.6522273,28.9442474 L60.9522273,27.2746684 L65.5245,27.2746684 C66.9085909,27.2746684 67.9149545,27.6263 68.5381364,28.3309053 C69.1667727,29.0126947 69.3685909,29.9776684 69.1449545,31.2285105 L68.1985909,36.5123789 Z" id="Fill-37" fill="#FFFFFF"></path>
                <path d="M77.6363182,36.5122447 L73.3067727,36.5122447 C72.1531364,36.5122447 71.2272273,36.1310868 70.5345,35.3701132 C69.7381364,34.5178763 69.4722273,33.3650079 69.7326818,31.9101658 C69.9945,30.4445868 70.6776818,29.2782974 71.7795,28.4153237 C72.7476818,27.65435 73.8072273,27.2745342 74.9635909,27.2745342 L79.2917727,27.2745342 L78.9931364,28.9441132 L74.6799545,28.9441132 C73.9531364,28.9441132 73.2985909,29.1776395 72.7204091,29.64335 C72.0331364,30.1882447 71.6035909,30.94385 71.4304091,31.9101658 C71.2572273,32.8764816 71.4167727,33.6253763 71.9090455,34.1608763 C72.3235909,34.6252447 72.8935909,34.8587711 73.6204091,34.8587711 L77.9322273,34.8587711 L77.6363182,36.5122447 Z" id="Fill-39" fill="#FFFFFF"></path>
                <path d="M86.757,30.93875 C86.7679091,29.3362763 86.0683636,28.5350395 84.6597273,28.5350395 C83.0083636,28.5350395 81.8833636,29.3362763 81.2860909,30.93875 L86.757,30.93875 Z M88.2256364,32.6083289 L80.9683636,32.6083289 C80.9260909,33.4270132 81.1292727,34.0068026 81.5751818,34.3476974 C82.0224545,34.6885921 82.7710909,34.8590395 83.8210909,34.8590395 L87.6310909,34.8590395 L87.3351818,36.5125132 L83.5251818,36.5125132 C80.2006364,36.5125132 78.8165455,34.9556711 79.3742727,31.8419868 C79.6060909,30.5468553 80.1447273,29.4449868 80.9888182,28.5350395 C82.0292727,27.4331711 83.3506364,26.8829079 84.957,26.8829079 C86.5033636,26.8829079 87.5479091,27.5016184 88.0879091,28.7403816 C88.482,29.6261711 88.5774545,30.6381184 88.3756364,31.7735395 L88.2256364,32.6083289 Z" id="Fill-41" fill="#FFFFFF"></path>
                <path d="M100.016455,27.3082211 C100.272818,25.8761947 99.4941818,25.1595105 97.6819091,25.1595105 L92.4005455,25.1595105 L91.6300909,29.4555895 L96.9114545,29.4555895 C98.7250909,29.4555895 99.7600909,28.7402474 100.016455,27.3082211 L100.016455,27.3082211 Z M100.098273,36.5123789 L98.2450909,36.5123789 L96.7832727,31.1426158 L91.3273636,31.1426158 L90.366,36.5123789 L88.6682727,36.5123789 L90.9987273,23.5060368 L97.9819091,23.4899316 C99.0537273,23.4899316 99.936,23.7288263 100.623273,24.2066158 C101.590091,24.8655895 101.948727,25.8990105 101.695091,27.3082211 C101.376,29.0918789 100.328727,30.2675632 98.5519091,30.8366158 L100.098273,36.5123789 Z" id="Fill-43" fill="#C92C80"></path>
                <path d="M110.416227,31.8928526 C110.583955,30.9614316 110.391682,30.1601947 109.8435,29.4891421 C109.289864,28.8435895 108.5385,28.5174579 107.592136,28.5174579 C106.667591,28.5174579 105.807136,28.8476158 105.008045,29.5065895 C104.219864,30.1655632 103.742591,30.9614316 103.576227,31.8928526 C103.409864,32.8242737 103.600773,33.6201421 104.153045,34.2791158 C104.717591,34.9273526 105.462136,35.2508 106.385318,35.2508 C107.333045,35.2508 108.205773,34.9219842 109.004864,34.2630105 C109.779409,33.6147737 110.249864,32.8242737 110.416227,31.8928526 M112.0935,31.9103 C111.845318,33.2966947 111.137591,34.4777474 109.967591,35.4561421 C108.800318,36.4331947 107.507591,36.9217211 106.086682,36.9217211 C104.688955,36.9217211 103.581682,36.4331947 102.764864,35.4561421 C101.946682,34.4777474 101.661682,33.2966947 101.911227,31.9103 C102.160773,30.5131684 102.869864,29.3254053 104.0385,28.3483526 C105.205773,27.3699579 106.487591,26.8827737 107.886682,26.8827737 C109.306227,26.8827737 110.424409,27.3699579 111.242591,28.3483526 C112.060773,29.3254053 112.344409,30.5131684 112.0935,31.9103" id="Fill-45" fill="#C92C80"></path>
                <path d="M120.8985,36.5122447 L116.568955,36.5122447 C115.413955,36.5122447 114.489409,36.1310868 113.795318,35.3701132 C113.000318,34.5178763 112.734409,33.3650079 112.994864,31.9101658 C113.256682,30.4445868 113.9385,29.2782974 115.040318,28.4153237 C116.0085,27.65435 117.068045,27.2745342 118.223045,27.2745342 L122.552591,27.2745342 L122.253955,28.9441132 L117.942136,28.9441132 C117.213955,28.9441132 116.560773,29.1776395 115.981227,29.64335 C115.295318,30.1882447 114.864409,30.94385 114.692591,31.9101658 C114.518045,32.8764816 114.677591,33.6253763 115.171227,34.1608763 C115.585773,34.6252447 116.154409,34.8587711 116.881227,34.8587711 L121.194409,34.8587711 L120.8985,36.5122447 Z" id="Fill-47" fill="#C92C80"></path>
                <path d="M130.683,36.5122447 L128.258455,36.5122447 L124.156636,31.7571658 L123.304364,36.5122447 L121.608,36.5122447 L123.938455,23.5072447 L125.636182,23.5072447 L124.338,30.7519289 L129.480273,27.2745342 L132.199364,27.2745342 L126.187091,31.3478237 L130.683,36.5122447 Z" id="Fill-49" fill="#C92C80"></path>
                <path d="M139.509273,30.93875 C139.518818,29.3362763 138.819273,28.5350395 137.410636,28.5350395 C135.760636,28.5350395 134.635636,29.3362763 134.035636,30.93875 L139.509273,30.93875 Z M140.976545,32.6083289 L133.720636,32.6083289 C133.677,33.4270132 133.880182,34.0068026 134.326091,34.3476974 C134.772,34.6885921 135.523364,34.8590395 136.572,34.8590395 L140.382,34.8590395 L140.086091,36.5125132 L136.276091,36.5125132 C132.950182,36.5125132 131.567455,34.9556711 132.126545,31.8419868 C132.358364,30.5468553 132.895636,29.4449868 133.741091,28.5350395 C134.778818,27.4331711 136.101545,26.8829079 137.706545,26.8829079 C139.255636,26.8829079 140.298818,27.5016184 140.838818,28.7403816 C141.234273,29.6261711 141.329727,30.6381184 141.126545,31.7735395 L140.976545,32.6083289 Z" id="Fill-51" fill="#C92C80"></path>
                <path d="M149.668636,28.9445158 L146.394545,28.9445158 L145.715455,32.7453579 C145.59,33.4392263 145.59,33.9210421 145.715455,34.1934895 C145.853182,34.4552 146.175,34.5867263 146.683636,34.5867263 L148.640455,34.5867263 L148.341818,36.2563053 L146.385,36.2563053 C144.399545,36.2563053 143.615455,35.0859895 144.034091,32.7453579 L144.715909,28.9445158 L142.326818,28.9445158 L142.624091,27.2735947 L145.014545,27.2735947 L145.690909,23.5063053 L147.370909,23.5063053 L146.694545,27.2735947 L149.968636,27.2735947 L149.668636,28.9445158 Z" id="Fill-53" fill="#C92C80"></path>
                <path d="M71.8868182,44.8151789 L72.3163636,42.4168368 L71.115,42.4168368 C70.59,42.4168368 70.1740909,42.5523895 69.8659091,42.8261789 C69.6259091,43.0409158 69.4786364,43.3026263 69.4240909,43.6126526 C69.3681818,43.9213368 69.4213636,44.1803632 69.585,44.3910737 C69.795,44.6742579 70.1604545,44.8151789 70.6854545,44.8151789 L71.8868182,44.8151789 Z M72.5659091,45.4124158 C72.4009091,46.3357842 71.7286364,46.7974684 70.5504545,46.7974684 L68.5936364,46.7974684 L68.7327273,46.0257579 L70.6881818,46.0257579 C71.0454545,46.0257579 71.3004545,45.9868368 71.4545455,45.9076526 C71.5963636,45.8459158 71.6904545,45.7358632 71.7422727,45.5774947 L70.4931818,45.5774947 C69.7186364,45.5774947 69.1759091,45.3493368 68.8622727,44.8943632 C68.6236364,44.5319947 68.5486364,44.1052053 68.6372727,43.6126526 C68.7259091,43.1133895 68.955,42.6866 69.3218182,42.3296 C69.7977273,41.8746263 70.4236364,41.6464684 71.1968182,41.6464684 L73.2409091,41.6464684 L72.5659091,45.4124158 Z" id="Fill-55" fill="#626366"></path>
                <path d="M76.1089091,43.7535737 L75.3220909,43.7535737 L75.4216364,43.1952579 C75.5143636,42.6758632 75.3289091,42.4168368 74.8639091,42.4168368 L74.1820909,42.4168368 L73.5561818,45.9076526 L72.7693636,45.9076526 L73.533,41.6464684 L75.0589091,41.6464684 C76.0107273,41.6464684 76.3939091,42.1618368 76.2084545,43.1952579 L76.1089091,43.7535737 Z" id="Fill-57" fill="#626366"></path>
                <path d="M79.6731818,45.1454711 L79.8790909,43.9979711 L77.8677273,43.9979711 C77.6890909,43.9979711 77.5268182,44.0422605 77.3795455,44.1308395 C77.2159091,44.2314974 77.1163636,44.3777868 77.0822727,44.57105 C77.0481818,44.7656553 77.0945455,44.9132868 77.2213636,45.0112605 C77.3359091,45.1011816 77.4831818,45.1454711 77.6604545,45.1454711 L79.6731818,45.1454711 Z M80.3236364,45.9077868 L77.5240909,45.9077868 C77.1995455,45.9077868 76.9172727,45.8218921 76.6786364,45.6487605 C76.3309091,45.41255 76.2013636,45.0542079 76.2872727,44.57105 C76.3745455,44.0892342 76.6336364,43.7268658 77.0659091,43.4866289 C77.3672727,43.3188658 77.6795455,43.2343132 78.0040909,43.2343132 L79.9909091,43.2343132 C80.0127273,42.6894184 79.6568182,42.4169711 78.9204545,42.4169711 L76.7781818,42.4169711 L76.9172727,41.6466026 L79.0581818,41.6466026 C79.7072727,41.6466026 80.1790909,41.8089974 80.4722727,42.1337868 C80.7681818,42.4491816 80.8636364,42.8934184 80.76,43.4705237 L80.3236364,45.9077868 Z" id="Fill-59" fill="#626366"></path>
                <path d="M84.3852273,43.7535737 C84.4588636,43.3442316 84.3920455,43.0167579 84.1875,42.7711526 C83.9870455,42.5295737 83.6952273,42.4087842 83.3120455,42.4087842 L81.9879545,42.4087842 L81.4970455,45.1453368 L82.8211364,45.1453368 C83.2043182,45.1453368 83.5452273,45.0164947 83.8384091,44.7601526 C84.1288636,44.5038105 84.3115909,44.1682842 84.3852273,43.7535737 M85.1802273,43.7535737 C85.0711364,44.3628895 84.7820455,44.8728895 84.3129545,45.2876 C83.8438636,45.7009684 83.3011364,45.9076526 82.6847727,45.9076526 L81.3606818,45.9076526 L81.1806818,46.9142316 L80.3856818,46.9142316 L81.3306818,41.6384158 L83.4497727,41.6384158 C84.0661364,41.6384158 84.5352273,41.8397316 84.8584091,42.2437053 C85.1802273,42.6423105 85.2893182,43.1456 85.1802273,43.7535737" id="Fill-61" fill="#626366"></path>
                <path d="M88.9315909,45.9083237 L88.1447727,45.9083237 L88.5797727,43.4777711 C88.6479545,43.1006395 88.6302273,42.8362447 88.5279545,42.6845868 C88.3970455,42.5060868 88.1093182,42.4161658 87.6661364,42.4161658 L86.5384091,42.4161658 L85.9125,45.9083237 L85.1175,45.9083237 L86.1934091,39.9077711 L86.9884091,39.9077711 L86.6761364,41.6457974 L87.8038636,41.6457974 C89.0652273,41.6457974 89.5861364,42.2564553 89.3665909,43.4777711 L88.9315909,45.9083237 Z" id="Fill-63" fill="#626366"></path>
                <path d="M90.9070909,40.6708921 L90.1120909,40.6708921 L90.2498182,39.9085763 L91.0448182,39.9085763 L90.9070909,40.6708921 Z M89.9689091,45.9077868 L89.1739091,45.9077868 L89.9375455,41.6466026 L90.7325455,41.6466026 L89.9689091,45.9077868 Z" id="Fill-65" fill="#626366"></path>
                <path d="M94.3914545,45.9083237 L92.3637273,45.9083237 C91.8223636,45.9083237 91.3873636,45.7325079 91.0628182,45.3822184 C90.6891818,44.9876395 90.5623636,44.4561658 90.6823636,43.7851132 C90.8037273,43.1086921 91.1228182,42.57185 91.6369091,42.1732447 C92.0896364,41.8216132 92.586,41.6457974 93.1273636,41.6457974 L95.1550909,41.6457974 L95.0173636,42.4161658 L92.9978182,42.4161658 C92.6569091,42.4161658 92.3500909,42.5248763 92.0787273,42.7396132 C91.7582727,42.9905868 91.5564545,43.3395342 91.4773636,43.7851132 C91.3969091,44.2306921 91.4746364,44.5769553 91.7050909,44.8225605 C91.9000909,45.0386395 92.1673636,45.1460079 92.5082727,45.1460079 L94.5278182,45.1460079 L94.3914545,45.9083237 Z" id="Fill-67" fill="#626366"></path>
                <path d="M101.025955,41.1584789 C101.057318,40.9853474 101.017773,40.8538211 100.910045,40.7652421 C100.802318,40.6712947 100.6755,40.6243211 100.529591,40.6243211 C100.124591,40.6243211 99.8886818,40.8014789 99.8245909,41.1584789 C99.8027727,41.2846368 99.9295909,41.5382947 100.207773,41.9207947 C100.719136,41.6067421 100.991864,41.3530842 101.025955,41.1584789 L101.025955,41.1584789 Z M101.196409,44.6023211 L99.8982273,42.9273737 C99.1359545,43.3474526 98.7227727,43.7353211 98.6586818,44.0923211 C98.6000455,44.4224789 98.6927727,44.6895579 98.9368636,44.8935579 C99.1591364,45.0720579 99.4509545,45.1606368 99.8136818,45.1606368 C100.2855,45.1606368 100.745045,44.9754263 101.196409,44.6023211 L101.196409,44.6023211 Z M103.196864,45.7981368 L102.110045,45.7981368 L101.631409,45.1606368 C100.997318,45.6491632 100.364591,45.8920842 99.7318636,45.8920842 C99.1100455,45.8920842 98.6245909,45.7511632 98.2755,45.4679789 C97.8827727,45.1485579 97.7382273,44.7002947 97.8432273,44.1231895 C97.9100455,43.7460579 98.1091364,43.4024789 98.4405,43.0924526 C98.6505,42.8884526 98.9914091,42.6415053 99.4659545,42.3542947 C99.1155,41.8657684 98.9723182,41.4336105 99.0405,41.0564789 C99.1045909,40.6941105 99.3009545,40.4069 99.6255,40.1908211 C99.9200455,39.9975579 100.256864,39.9009263 100.634591,39.9009263 C101.019136,39.9009263 101.325955,39.9948737 101.557773,40.1827684 C101.818227,40.3934789 101.916409,40.6739789 101.852318,41.0242684 C101.765045,41.5127947 101.360045,41.9999789 100.633227,42.4871632 L101.748682,43.9191895 C102.000955,43.4789789 102.202773,42.8320842 102.356864,41.9758211 L103.158682,41.9758211 C102.960955,43.0253474 102.645955,43.8735579 102.217773,44.5244789 L103.196864,45.7981368 Z" id="Fill-69" fill="#626366"></path>
                <path d="M113.578909,41.6460658 L111.590727,45.9085921 L110.745273,45.9085921 L110.082545,42.9116711 L108.327545,45.9085921 L107.493,45.9085921 L107.022545,41.6460658 L107.850273,41.6460658 L108.177545,44.7127763 L109.968,41.6460658 L110.641636,41.6460658 L111.324818,44.7127763 L112.766182,41.6460658 L113.578909,41.6460658 Z" id="Fill-71" fill="#626366"></path>
                <path d="M117.031364,43.33685 C117.034091,42.59735 116.705455,42.2282711 116.045455,42.2282711 C115.272273,42.2282711 114.745909,42.59735 114.467727,43.33685 L117.031364,43.33685 Z M117.72,44.1072184 L114.321818,44.1072184 C114.302727,44.48435 114.398182,44.7527711 114.608182,44.9097974 C114.816818,45.0668237 115.167273,45.1460079 115.660909,45.1460079 L117.444545,45.1460079 L117.308182,45.9083237 L115.524545,45.9083237 C113.965909,45.9083237 113.315455,45.1902974 113.573182,43.7542447 C113.679545,43.1556658 113.931818,42.6470079 114.325909,42.2282711 C114.811364,41.7196132 115.430455,41.4646132 116.181818,41.4646132 C116.907273,41.4646132 117.396818,41.7504816 117.651818,42.3235605 C117.837273,42.7315605 117.883636,43.1972711 117.789545,43.7220342 L117.72,44.1072184 Z" id="Fill-73" fill="#626366"></path>
                <path d="M121.583591,43.7849789 C121.664045,43.3394 121.591773,42.9904526 121.365409,42.7394789 C121.166318,42.5247421 120.901773,42.4160316 120.571773,42.4160316 L119.142682,42.4160316 L118.6545,45.1458737 L120.082227,45.1458737 C120.412227,45.1458737 120.716318,45.0385053 120.991773,44.8224263 C121.308136,44.5768211 121.503136,44.2319 121.583591,43.7849789 M122.386773,43.7849789 C122.266773,44.4560316 121.950409,44.9875053 121.436318,45.3820842 C120.983591,45.7323737 120.489955,45.9081895 119.954045,45.9081895 L117.721773,45.9081895 L118.797682,39.9076368 L119.592682,39.9076368 L119.281773,41.6456632 L120.717682,41.6456632 C121.253591,41.6456632 121.6845,41.8214789 122.010409,42.1731105 C122.382682,42.5717158 122.508136,43.1085579 122.386773,43.7849789" id="Fill-75" fill="#626366"></path>
                <path d="M128.804045,45.1454711 L129.293591,42.4169711 L127.874045,42.4169711 C127.533136,42.4169711 127.227682,42.5243395 126.956318,42.7390763 C126.6345,42.9913921 126.434045,43.3403395 126.353591,43.7845763 C126.2745,44.2314974 126.350864,44.5764184 126.582682,44.8233658 C126.776318,45.0381026 127.043591,45.1454711 127.3845,45.1454711 L128.804045,45.1454711 Z M129.4545,45.9077868 L127.239955,45.9077868 C126.699955,45.9077868 126.264955,45.7333132 125.939045,45.3816816 C125.565409,44.9884447 125.438591,44.4556289 125.558591,43.7845763 C125.679955,43.1081553 125.999045,42.5713132 126.513136,42.1727079 C126.965864,41.8210763 127.463591,41.6466026 128.003591,41.6466026 L129.431318,41.6466026 L129.742227,39.9085763 L130.530409,39.9085763 L129.4545,45.9077868 Z" id="Fill-77" fill="#626366"></path>
                <path d="M133.632,43.33685 C133.634727,42.59735 133.306091,42.2282711 132.646091,42.2282711 C131.872909,42.2282711 131.346545,42.59735 131.068364,43.33685 L133.632,43.33685 Z M134.320636,44.1072184 L130.922455,44.1072184 C130.903364,44.48435 130.998818,44.7527711 131.208818,44.9097974 C131.417455,45.0668237 131.767909,45.1460079 132.261545,45.1460079 L134.045182,45.1460079 L133.908818,45.9083237 L132.125182,45.9083237 C130.566545,45.9083237 129.916091,45.1902974 130.173818,43.7542447 C130.280182,43.1556658 130.532455,42.6470079 130.926545,42.2282711 C131.412,41.7196132 132.031091,41.4646132 132.782455,41.4646132 C133.507909,41.4646132 133.997455,41.7504816 134.252455,42.3235605 C134.437909,42.7315605 134.484273,43.1972711 134.390182,43.7220342 L134.320636,44.1072184 Z" id="Fill-79" fill="#626366"></path>
                <path d="M138.792955,44.6028579 C138.6375,45.4725421 138.000682,45.9087263 136.887955,45.9087263 L134.607955,45.9087263 L134.745682,45.1370158 L137.025682,45.1370158 C137.339318,45.1370158 137.573864,45.0980947 137.727955,45.0202526 C137.871136,44.9464368 137.9625,44.8068579 137.997955,44.6028579 C138.060682,44.2512263 137.846591,44.0754105 137.352955,44.0754105 L136.395682,44.0754105 C135.293864,44.0754105 134.813864,43.6700947 134.958409,42.8567789 C135.040227,42.4071737 135.282955,42.0783579 135.687955,41.8743579 C135.981136,41.7173316 136.332955,41.6381474 136.743409,41.6381474 L139.049318,41.6381474 L138.910227,42.4085158 L136.605682,42.4085158 C136.086136,42.4085158 135.799773,42.5588316 135.746591,42.8567789 C135.707045,43.0715158 135.783409,43.2084105 135.974318,43.2661211 C136.061591,43.2929632 136.248409,43.3050421 136.534773,43.3050421 L137.492045,43.3050421 C137.957045,43.3050421 138.3075,43.4177789 138.542045,43.6432526 C138.783409,43.8687263 138.867955,44.1894895 138.792955,44.6028579" id="Fill-81" fill="#626366"></path>
                <path d="M140.616,40.6708921 L139.821,40.6708921 L139.958727,39.9085763 L140.753727,39.9085763 L140.616,40.6708921 Z M139.677818,45.9077868 L138.882818,45.9077868 L139.646455,41.6466026 L140.441455,41.6466026 L139.677818,45.9077868 Z" id="Fill-83" fill="#626366"></path>
                <path d="M143.753455,44.8151789 L144.183,42.4168368 L142.981636,42.4168368 C142.456636,42.4168368 142.040727,42.5523895 141.732545,42.8261789 C141.492545,43.0409158 141.345273,43.3026263 141.290727,43.6126526 C141.234818,43.9213368 141.288,44.1803632 141.451636,44.3910737 C141.661636,44.6742579 142.027091,44.8151789 142.552091,44.8151789 L143.753455,44.8151789 Z M144.432545,45.4124158 C144.267545,46.3357842 143.595273,46.7974684 142.417091,46.7974684 L140.460273,46.7974684 L140.599364,46.0257579 L142.554818,46.0257579 C142.912091,46.0257579 143.167091,45.9868368 143.321182,45.9076526 C143.463,45.8459158 143.557091,45.7358632 143.608909,45.5774947 L142.359818,45.5774947 C141.585273,45.5774947 141.042545,45.3493368 140.728909,44.8943632 C140.490273,44.5319947 140.415273,44.1052053 140.503909,43.6126526 C140.592545,43.1133895 140.821636,42.6866 141.188455,42.3296 C141.664364,41.8746263 142.290273,41.6464684 143.063455,41.6464684 L145.107545,41.6464684 L144.432545,45.4124158 Z" id="Fill-85" fill="#626366"></path>
                <path d="M148.578682,45.9083237 L147.791864,45.9083237 L148.157318,43.8642974 C148.263682,43.2764553 148.213227,42.87785 148.007318,42.6684816 C147.842318,42.5007184 147.512318,42.4161658 147.014591,42.4161658 L145.967318,42.4161658 L145.341409,45.9083237 L144.546409,45.9083237 L145.310045,41.6457974 L147.152318,41.6457974 C147.849136,41.6457974 148.344136,41.7974553 148.635955,42.1021132 C148.989136,42.4591132 149.091409,43.0456132 148.9455,43.8642974 L148.578682,45.9083237 Z" id="Fill-87" fill="#626366"></path>
                <path d="M23.0342727,8.47217632 L13.1710909,8.47217632 L8.94518182,18.1782816 L12.6651818,15.0135974 L16.7438182,17.4817289 L23.0342727,8.47217632 Z" id="Fill-1" fill="#D82487"></path>
                <path d="M31.4877273,16.7921553 L31.4877273,26.4982605 L21.6245455,30.6587868 L24.8209091,26.97605 L22.3118182,22.9631553 L31.4877273,16.7921553 Z" id="Fill-2" fill="#D82487"></path>
            </g>
        </g>
    </g>
</svg>