<svg width="147" height="50" viewBox="0 0 147 50" xmlns="http://www.w3.org/2000/svg"><style>.a{fill:#D82487;}.b{fill:#30153A;}.c{fill:#31153A;}.d{fill:#C92C80;}.e{fill:#626366;}</style><title>  logo-alt@1.5x</title><desc>  Created with Sketch.</desc><g fill="none"><path d="M22.5 8.8L12.8 8.8 8.7 18.5 12.4 15.3 16.3 17.8 22.5 8.8Z" class="a"/><path d="M30.7 17.1L30.7 26.7 21.1 30.8 24.2 27.2 21.8 23.2 30.7 17.1Z" class="a"/><path d="M31 13.3C29.7 14.7 27.6 14.7 26.2 13.3 24.9 12 24.9 9.8 26.2 8.5 27.6 7.1 29.7 7.1 31 8.5 32.4 9.8 32.4 12 31 13.3M39 0.6C20.7-0.2 14.4 15.9 13.6 21.7 14 22.7 14.5 23.7 15.2 24.4 15.9 25.1 16.9 25.6 17.9 26 23.7 25.2 39.8 18.9 39 0.6" class="a"/><path d="M12.8 25.4C14 25.4 15 26.4 15 27.5 15 28.7 14 29.7 12.8 29.7 11.7 29.7 10.7 28.7 10.7 27.5 10.7 26.4 11.7 25.4 12.8 25.4" class="b"/><path d="M7.7 27.9C8.8 27.9 9.8 28.9 9.8 30 9.8 31.2 8.8 32.2 7.7 32.2 6.5 32.2 5.5 31.2 5.5 30 5.5 28.9 6.5 27.9 7.7 27.9" class="b"/><path d="M13.9 30.8C15.1 30.8 16.1 31.7 16.1 32.9 16.1 34.1 15.1 35 13.9 35 12.7 35 11.8 34.1 11.8 32.9 11.8 31.7 12.7 30.8 13.9 30.8" class="b"/><path d="M7.4 32.5C8 32.5 8.5 33 8.5 33.7 8.5 34.3 8 34.8 7.4 34.8 6.8 34.8 6.3 34.3 6.3 33.7 6.3 33 6.8 32.5 7.4 32.5" class="b"/><path d="M10.5 34.3C11.1 34.3 11.6 34.8 11.6 35.4 11.6 36.1 11.1 36.6 10.5 36.6 9.9 36.6 9.4 36.1 9.4 35.4 9.4 34.8 9.9 34.3 10.5 34.3" class="b"/><path d="M7.6 36.4C8.2 36.4 8.7 36.9 8.7 37.5 8.7 38.1 8.2 38.6 7.6 38.6 6.9 38.6 6.4 38.1 6.4 37.5 6.4 36.9 6.9 36.4 7.6 36.4" class="b"/><path d="M4.3 36.2C4.8 36.2 5.1 36.5 5.1 37 5.1 37.4 4.8 37.7 4.3 37.7 3.9 37.7 3.6 37.4 3.6 37 3.6 36.5 3.9 36.2 4.3 36.2" class="b"/><path d="M9.7 38.9C10.1 38.9 10.5 39.2 10.5 39.6 10.5 40.1 10.1 40.4 9.7 40.4 9.3 40.4 8.9 40.1 8.9 39.6 8.9 39.2 9.3 38.9 9.7 38.9" class="b"/><path d="M7 40.7C7.4 40.7 7.8 41 7.8 41.4 7.8 41.8 7.4 42.2 7 42.2 6.6 42.2 6.3 41.8 6.3 41.4 6.3 41 6.6 40.7 7 40.7" class="b"/><path d="M4.7 38.9C5.1 38.9 5.4 39.2 5.4 39.6 5.4 40.1 5.1 40.4 4.7 40.4 4.2 40.4 3.9 40.1 3.9 39.6 3.9 39.2 4.2 38.9 4.7 38.9" class="b"/><path d="M4.3 43.1C4.8 43.1 5.1 43.5 5.1 43.9 5.1 44.3 4.8 44.6 4.3 44.6 3.9 44.6 3.6 44.3 3.6 43.9 3.6 43.5 3.9 43.1 4.3 43.1" class="b"/><path d="M6.1 46.7C6.5 46.7 6.9 47 6.9 47.5 6.9 47.9 6.5 48.2 6.1 48.2 5.7 48.2 5.4 47.9 5.4 47.5 5.4 47 5.7 46.7 6.1 46.7" class="b"/><path d="M1.7 48.5C2.1 48.5 2.4 48.8 2.4 49.2 2.4 49.7 2.1 50 1.7 50 1.2 50 0.9 49.7 0.9 49.2 0.9 48.8 1.2 48.5 1.7 48.5" class="b"/><path d="M0.8 43.1C1.2 43.1 1.5 43.5 1.5 43.9 1.5 44.3 1.2 44.6 0.8 44.6 0.3 44.6 0 44.3 0 43.9 0 43.5 0.3 43.1 0.8 43.1" class="b"/><path d="M47.8 32.6C47.4 35.3 45.7 36.6 42.7 36.6L36.1 36.6 36.4 35 43 35C43.9 35 44.6 34.8 45 34.6 45.6 34.2 46 33.5 46.2 32.6 46.4 31.3 45.7 30.7 44 30.7L41.1 30.7C40 30.7 39 30.4 38.3 29.8 37.5 29.2 37.2 28.3 37.4 27.2 37.6 25.9 38.3 25 39.4 24.4 40.2 24 41.1 23.7 42.1 23.7L48.9 23.7 48.6 25.4 41.8 25.4C41.1 25.4 40.5 25.5 40 25.8 39.5 26.1 39.2 26.6 39.1 27.2 39 27.7 39.1 28.1 39.5 28.5 39.9 28.8 40.6 29 41.4 29L44.3 29C45.4 29 46.2 29.2 46.9 29.7 47.8 30.4 48.1 31.3 47.8 32.6" class="c"/><path d="M56 32C56.2 31.1 56 30.4 55.6 29.9 55.2 29.4 54.6 29.1 53.8 29.1L51 29.1 50 35 52.8 35C53.6 35 54.3 34.7 54.9 34.2 55.5 33.6 55.9 32.9 56 32M57.7 32C57.4 33.3 56.8 34.4 55.9 35.3 54.9 36.2 53.8 36.6 52.5 36.6L49.7 36.6 49.3 38.8 47.7 38.8 49.7 27.5 54.1 27.5C55.4 27.5 56.3 27.9 57 28.8 57.7 29.6 57.9 30.7 57.7 32" class="c"/><path d="M65.2 35L65.6 32.5 61.4 32.5C61 32.5 60.7 32.6 60.4 32.8 60.1 33 59.9 33.3 59.8 33.8 59.7 34.2 59.8 34.5 60.1 34.7 60.3 34.9 60.6 35 61 35L65.2 35ZM66.5 36.6L60.7 36.6C60 36.6 59.4 36.4 58.9 36.1 58.2 35.6 57.9 34.8 58.1 33.8 58.3 32.7 58.9 31.9 59.8 31.4 60.4 31.1 61 30.9 61.7 30.9L65.8 30.9C65.9 29.7 65.2 29.1 63.6 29.1L59.2 29.1 59.5 27.5 63.9 27.5C65.3 27.5 66.2 27.8 66.9 28.5 67.5 29.2 67.7 30.2 67.4 31.4L66.5 36.6Z" class="c"/><path d="M75.7 36.6L71.5 36.6C70.4 36.6 69.5 36.3 68.8 35.5 68 34.7 67.8 33.5 68 32.1 68.3 30.6 68.9 29.5 70 28.6 71 27.9 72 27.5 73.1 27.5L77.3 27.5 77 29.1 72.8 29.1C72.1 29.1 71.5 29.4 70.9 29.8 70.3 30.4 69.8 31.1 69.7 32.1 69.5 33 69.7 33.8 70.1 34.3 70.5 34.8 71.1 35 71.8 35L76 35 75.7 36.6Z" class="c"/><path d="M84.6 31.1C84.6 29.5 84 28.7 82.6 28.7 81 28.7 79.9 29.5 79.3 31.1L84.6 31.1ZM86.1 32.8L79 32.8C78.9 33.6 79.1 34.2 79.6 34.5 80 34.8 80.7 35 81.8 35L85.5 35 85.2 36.6 81.5 36.6C78.2 36.6 76.9 35.1 77.4 32 77.6 30.7 78.2 29.6 79 28.7 80 27.6 81.3 27.1 82.9 27.1 84.4 27.1 85.4 27.7 85.9 28.9 86.3 29.8 86.4 30.8 86.2 31.9L86.1 32.8Z" class="c"/><path d="M97.6 27.5C97.8 26.1 97 25.4 95.3 25.4L90.1 25.4 89.4 29.6 94.5 29.6C96.3 29.6 97.3 28.9 97.6 27.5L97.6 27.5ZM97.6 36.6L95.8 36.6 94.4 31.3 89.1 31.3 88.1 36.6 86.5 36.6 88.8 23.7 95.6 23.7C96.6 23.7 97.5 24 98.1 24.4 99.1 25.1 99.4 26.1 99.2 27.5 98.9 29.3 97.9 30.4 96.1 31L97.6 36.6Z" class="d"/><path d="M107.7 32.1C107.9 31.1 107.7 30.3 107.1 29.7 106.6 29 105.9 28.7 104.9 28.7 104 28.7 103.2 29 102.4 29.7 101.7 30.3 101.2 31.1 101 32.1 100.9 33 101.1 33.8 101.6 34.4 102.1 35.1 102.9 35.4 103.8 35.4 104.7 35.4 105.5 35.1 106.3 34.4 107.1 33.8 107.5 33 107.7 32.1M109.3 32.1C109.1 33.4 108.4 34.6 107.3 35.6 106.1 36.6 104.9 37 103.5 37 102.1 37 101 36.6 100.2 35.6 99.4 34.6 99.2 33.4 99.4 32.1 99.6 30.7 100.3 29.5 101.5 28.5 102.6 27.6 103.9 27.1 105.2 27.1 106.6 27.1 107.7 27.6 108.5 28.5 109.3 29.5 109.6 30.7 109.3 32.1" class="d"/><path d="M117.9 36.6L113.7 36.6C112.6 36.6 111.7 36.3 111 35.5 110.2 34.7 110 33.5 110.2 32.1 110.5 30.6 111.1 29.5 112.2 28.6 113.2 27.9 114.2 27.5 115.3 27.5L119.5 27.5 119.2 29.1 115 29.1C114.3 29.1 113.7 29.4 113.1 29.8 112.5 30.4 112 31.1 111.9 32.1 111.7 33 111.9 33.8 112.3 34.3 112.7 34.8 113.3 35 114 35L118.2 35 117.9 36.6Z" class="d"/><path d="M127.5 36.6L125.1 36.6 121.1 31.9 120.3 36.6 118.6 36.6 120.9 23.7 122.5 23.7 121.3 30.9 126.3 27.5 128.9 27.5 123.1 31.5 127.5 36.6Z" class="d"/><path d="M136.1 31.1C136.1 29.5 135.4 28.7 134 28.7 132.4 28.7 131.3 29.5 130.7 31.1L136.1 31.1ZM137.5 32.8L130.4 32.8C130.4 33.6 130.6 34.2 131 34.5 131.5 34.8 132.2 35 133.2 35L136.9 35 136.6 36.6 132.9 36.6C129.7 36.6 128.3 35.1 128.9 32 129.1 30.7 129.6 29.6 130.4 28.7 131.5 27.6 132.8 27.1 134.3 27.1 135.8 27.1 136.8 27.7 137.4 28.9 137.8 29.8 137.9 30.8 137.7 31.9L137.5 32.8Z" class="d"/><path d="M146 29.1L142.8 29.1 142.1 32.9C142 33.6 142 34.1 142.1 34.3 142.3 34.6 142.6 34.7 143.1 34.7L145 34.7 144.7 36.4 142.8 36.4C140.8 36.4 140.1 35.2 140.5 32.9L141.2 29.1 138.8 29.1 139.1 27.5 141.4 27.5 142.1 23.7 143.7 23.7 143.1 27.5 146.3 27.5 146 29.1Z" class="d"/><path d="M70.1 46.2L70.5 43.8 69.4 43.8C68.9 43.8 68.4 44 68.1 44.2 67.9 44.5 67.8 44.7 67.7 45 67.7 45.3 67.7 45.6 67.9 45.8 68.1 46.1 68.4 46.2 68.9 46.2L70.1 46.2ZM70.8 46.8C70.6 47.7 70 48.2 68.8 48.2L66.9 48.2 67 47.4 68.9 47.4C69.3 47.4 69.5 47.4 69.7 47.3 69.8 47.2 69.9 47.1 70 47L68.8 47C68 47 67.5 46.7 67.2 46.3 66.9 45.9 66.9 45.5 66.9 45 67 44.5 67.3 44.1 67.6 43.8 68.1 43.3 68.7 43.1 69.4 43.1L71.4 43.1 70.8 46.8Z" class="e"/><path d="M74.2 45.2L73.5 45.2 73.6 44.6C73.7 44.1 73.5 43.8 73 43.8L72.4 43.8 71.7 47.3 71 47.3 71.7 43.1 73.2 43.1C74.1 43.1 74.5 43.6 74.3 44.6L74.2 45.2Z" class="e"/><path d="M77.7 46.5L77.9 45.4 76 45.4C75.8 45.4 75.6 45.4 75.5 45.5 75.3 45.6 75.2 45.8 75.2 46 75.2 46.2 75.2 46.3 75.3 46.4 75.4 46.5 75.6 46.5 75.8 46.5L77.7 46.5ZM78.3 47.3L75.6 47.3C75.3 47.3 75 47.2 74.8 47 74.5 46.8 74.3 46.5 74.4 46 74.5 45.5 74.7 45.1 75.2 44.9 75.5 44.7 75.8 44.6 76.1 44.6L78 44.6C78 44.1 77.7 43.8 77 43.8L74.9 43.8 75 43.1 77.1 43.1C77.7 43.1 78.2 43.2 78.5 43.6 78.8 43.9 78.9 44.3 78.8 44.9L78.3 47.3Z" class="e"/><path d="M82.3 45.2C82.4 44.8 82.3 44.4 82.1 44.2 81.9 43.9 81.6 43.8 81.3 43.8L80 43.8 79.5 46.5 80.8 46.5C81.2 46.5 81.5 46.4 81.8 46.2 82.1 45.9 82.2 45.6 82.3 45.2M83.1 45.2C83 45.8 82.7 46.3 82.2 46.7 81.8 47.1 81.3 47.3 80.6 47.3L79.4 47.3 79.2 48.3 78.4 48.3 79.3 43.1 81.4 43.1C82 43.1 82.5 43.3 82.8 43.7 83.1 44.1 83.2 44.6 83.1 45.2" class="e"/><path d="M86.7 47.3L86 47.3 86.4 44.9C86.5 44.5 86.4 44.3 86.4 44.1 86.2 43.9 85.9 43.8 85.5 43.8L84.4 43.8 83.8 47.3 83 47.3 84.1 41.4 84.8 41.4 84.5 43.1 85.6 43.1C86.9 43.1 87.4 43.7 87.2 44.9L86.7 47.3Z" class="e"/><path d="M88.7 42.1L87.9 42.1 88 41.4 88.8 41.4 88.7 42.1ZM87.8 47.3L87 47.3 87.7 43.1 88.5 43.1 87.8 47.3Z" class="e"/><path d="M92.1 47.3L90.1 47.3C89.6 47.3 89.1 47.1 88.8 46.8 88.5 46.4 88.3 45.9 88.5 45.2 88.6 44.5 88.9 44 89.4 43.6 89.8 43.2 90.3 43.1 90.8 43.1L92.8 43.1 92.7 43.8 90.7 43.8C90.4 43.8 90.1 43.9 89.8 44.2 89.5 44.4 89.3 44.8 89.2 45.2 89.2 45.6 89.2 46 89.5 46.2 89.6 46.4 89.9 46.5 90.2 46.5L92.2 46.5 92.1 47.3Z" class="e"/><path d="M98.5 42.6C98.6 42.4 98.5 42.3 98.4 42.2 98.3 42.1 98.2 42.1 98.1 42.1 97.7 42.1 97.4 42.2 97.4 42.6 97.3 42.7 97.5 43 97.7 43.3 98.2 43 98.5 42.8 98.5 42.6L98.5 42.6ZM98.7 46L97.4 44.3C96.7 44.8 96.3 45.1 96.2 45.5 96.2 45.8 96.3 46.1 96.5 46.3 96.7 46.5 97 46.6 97.4 46.6 97.8 46.6 98.3 46.4 98.7 46L98.7 46ZM100.7 47.2L99.6 47.2 99.1 46.6C98.5 47 97.9 47.3 97.3 47.3 96.7 47.3 96.2 47.1 95.9 46.9 95.5 46.5 95.3 46.1 95.4 45.5 95.5 45.2 95.7 44.8 96 44.5 96.2 44.3 96.6 44.1 97 43.8 96.7 43.3 96.5 42.9 96.6 42.5 96.7 42.1 96.9 41.8 97.2 41.6 97.5 41.4 97.8 41.3 98.2 41.3 98.5 41.3 98.8 41.4 99.1 41.6 99.3 41.8 99.4 42.1 99.3 42.5 99.3 42.9 98.9 43.4 98.2 43.9L99.2 45.3C99.5 44.9 99.7 44.2 99.8 43.4L100.6 43.4C100.4 44.4 100.1 45.3 99.7 45.9L100.7 47.2Z" class="e"/><path d="M110.8 43.1L108.8 47.3 108 47.3 107.4 44.3 105.7 47.3 104.8 47.3 104.4 43.1 105.2 43.1 105.5 46.1 107.3 43.1 107.9 43.1 108.6 46.1 110 43.1 110.8 43.1Z" class="e"/><path d="M114.2 44.7C114.2 44 113.8 43.7 113.2 43.7 112.4 43.7 111.9 44 111.7 44.7L114.2 44.7ZM114.8 45.5L111.5 45.5C111.5 45.9 111.6 46.2 111.8 46.3 112 46.5 112.3 46.5 112.8 46.5L114.6 46.5 114.4 47.3 112.7 47.3C111.2 47.3 110.5 46.6 110.8 45.2 110.9 44.6 111.1 44.1 111.5 43.7 112 43.1 112.6 42.9 113.3 42.9 114 42.9 114.5 43.2 114.8 43.7 114.9 44.1 115 44.6 114.9 45.1L114.8 45.5Z" class="e"/><path d="M118.6 45.2C118.7 44.8 118.6 44.4 118.4 44.2 118.2 43.9 117.9 43.8 117.6 43.8L116.2 43.8 115.7 46.5 117.1 46.5C117.5 46.5 117.7 46.4 118 46.2 118.3 46 118.5 45.6 118.6 45.2M119.4 45.2C119.3 45.9 119 46.4 118.5 46.8 118 47.1 117.5 47.3 117 47.3L114.8 47.3 115.9 41.4 116.7 41.4 116.3 43.1 117.7 43.1C118.3 43.1 118.7 43.2 119 43.6 119.4 44 119.5 44.5 119.4 45.2" class="e"/><path d="M125.6 46.5L126.1 43.8 124.7 43.8C124.4 43.8 124.1 43.9 123.8 44.2 123.5 44.4 123.3 44.8 123.2 45.2 123.2 45.6 123.2 46 123.5 46.2 123.7 46.4 123.9 46.5 124.3 46.5L125.6 46.5ZM126.3 47.3L124.1 47.3C123.6 47.3 123.2 47.1 122.8 46.8 122.5 46.4 122.4 45.9 122.5 45.2 122.6 44.5 122.9 44 123.4 43.6 123.8 43.2 124.3 43.1 124.9 43.1L126.2 43.1 126.6 41.4 127.3 41.4 126.3 47.3Z" class="e"/><path d="M130.3 44.7C130.3 44 130 43.7 129.4 43.7 128.6 43.7 128.1 44 127.8 44.7L130.3 44.7ZM131 45.5L127.7 45.5C127.7 45.9 127.8 46.2 128 46.3 128.2 46.5 128.5 46.5 129 46.5L130.7 46.5 130.6 47.3 128.9 47.3C127.4 47.3 126.7 46.6 127 45.2 127.1 44.6 127.3 44.1 127.7 43.7 128.2 43.1 128.8 42.9 129.5 42.9 130.2 42.9 130.7 43.2 130.9 43.7 131.1 44.1 131.2 44.6 131.1 45.1L131 45.5Z" class="e"/><path d="M135.4 46C135.2 46.9 134.6 47.3 133.5 47.3L131.3 47.3 131.4 46.5 133.7 46.5C134 46.5 134.2 46.5 134.3 46.4 134.5 46.3 134.6 46.2 134.6 46 134.7 45.7 134.5 45.5 134 45.5L133 45.5C132 45.5 131.5 45.1 131.6 44.3 131.7 43.8 132 43.5 132.4 43.3 132.6 43.1 133 43.1 133.4 43.1L135.6 43.1 135.5 43.8 133.2 43.8C132.7 43.8 132.5 44 132.4 44.3 132.4 44.5 132.4 44.6 132.6 44.7 132.7 44.7 132.9 44.7 133.2 44.7L134.1 44.7C134.6 44.7 134.9 44.8 135.1 45.1 135.4 45.3 135.5 45.6 135.4 46" class="e"/><path d="M137.2 42.1L136.4 42.1 136.5 41.4 137.3 41.4 137.2 42.1ZM136.2 47.3L135.5 47.3 136.2 43.1 137 43.1 136.2 47.3Z" class="e"/><path d="M140.2 46.2L140.6 43.8 139.5 43.8C139 43.8 138.5 44 138.2 44.2 138 44.5 137.9 44.7 137.8 45 137.8 45.3 137.8 45.6 138 45.8 138.2 46.1 138.5 46.2 139 46.2L140.2 46.2ZM140.9 46.8C140.7 47.7 140.1 48.2 138.9 48.2L137 48.2 137.1 47.4 139 47.4C139.4 47.4 139.6 47.4 139.8 47.3 139.9 47.2 140 47.1 140.1 47L138.9 47C138.1 47 137.6 46.7 137.3 46.3 137 45.9 137 45.5 137 45 137.1 44.5 137.4 44.1 137.7 43.8 138.2 43.3 138.8 43.1 139.5 43.1L141.5 43.1 140.9 46.8Z" class="e"/><path d="M144.9 47.3L144.2 47.3 144.5 45.3C144.6 44.7 144.6 44.3 144.4 44.1 144.2 43.9 143.9 43.8 143.4 43.8L142.4 43.8 141.8 47.3 141 47.3 141.7 43.1 143.5 43.1C144.2 43.1 144.7 43.2 145 43.5 145.3 43.9 145.4 44.5 145.3 45.3L144.9 47.3Z" class="e"/></g></svg>