<?xml version="1.0" encoding="UTF-8" standalone="no"?>
<svg width="214px" height="122px" viewBox="0 0 214 122" version="1.1" xmlns="http://www.w3.org/2000/svg" xmlns:xlink="http://www.w3.org/1999/xlink">
    <!-- Generator: Sketch 3.6.1 (26313) - http://www.bohemiancoding.com/sketch -->
    <title>sfgate</title>
    <desc>Created with Sketch.</desc>
    <defs></defs>
    <g id="Welcome" stroke="none" stroke-width="1" fill="none" fill-rule="evenodd">
        <g id="about-us" transform="translate(-258.000000, -1078.000000)" fill="#FFFFFF">
            <g id="sfgate" transform="translate(258.000000, 1078.000000)">
                <path d="M152.281428,90.5770947 C151.20098,90.5770947 150.327583,91.3494063 150.327583,92.3011874 L150.327583,101.989305 C149.814538,102.286265 149.321038,102.61664 148.860519,102.999832 C146.167034,105.227301 141.946019,105.225145 139.25009,102.999832 C135.060835,99.5349389 128.490198,99.5349389 124.298499,102.999832 C121.605014,105.227301 117.38461,105.225145 114.688071,102.999832 C110.498816,99.5349389 103.928178,99.5349389 99.7364802,102.999832 C97.042995,105.227301 92.8225909,105.225145 90.1291057,102.999832 C85.9367969,99.5349389 79.368602,99.5349389 75.1744609,102.999832 C72.4809757,105.225145 68.2605716,105.225145 65.5670864,102.999832 C65.1065676,102.618796 64.6124566,102.286265 64.0994119,101.989305 L64.0994119,92.3011874 C64.0994119,91.3494063 63.2266249,90.5770947 62.1455663,90.5770947 L60.7811114,90.5770947 L60.7811114,68.0695747 L153.646494,68.0695747 L153.646494,90.5770947 L152.281428,90.5770947 Z M163.81211,102.999832 C161.168708,100.812783 157.578005,100.008674 154.235274,100.581036 L154.235274,94.02528 L164.554192,94.02528 L164.554192,103.524227 C164.298892,103.36416 164.048477,103.193853 163.81211,102.999832 L163.81211,102.999832 Z M50.6148846,102.997676 C50.3791283,103.193853 50.1281029,103.36416 49.872802,103.524227 L49.872802,94.02528 L60.1917207,94.02528 L60.1917207,100.581036 C56.8489896,100.010291 53.2582868,100.812783 50.6148846,102.997676 L50.6148846,102.997676 Z M43.7797843,57.5072842 L43.7797843,35.2482189 C45.9626678,32.5642611 47.8139044,29.6587958 49.2815789,26.5770947 L49.2815789,57.5072842 L43.7797843,57.5072842 Z M17.7958981,51.8402526 C20.9688358,50.9682358 24.0086261,49.8251284 26.8786231,48.4421895 L26.8786231,57.5072842 L17.7958981,57.5072842 L17.7958981,51.8402526 Z M39.8714824,39.4843453 L39.8714824,57.5072842 L30.7887574,57.5072842 L30.7887574,46.3516126 C34.1174408,44.3833768 37.1663927,42.0756042 39.8714824,39.4843453 L39.8714824,39.4843453 Z M66.2847384,35.2503747 L66.2847384,57.5072842 L60.7811114,57.5072842 L60.7811114,26.5770947 C62.2506183,29.6587958 64.1018549,32.5664168 66.2847384,35.2503747 L66.2847384,35.2503747 Z M79.2757653,46.3537684 L79.2757653,57.5072842 L70.1930403,57.5072842 L70.1930403,39.4865011 C72.8987408,42.07776 75.9476927,44.3849937 79.2757653,46.3537684 L79.2757653,46.3537684 Z M144.234565,39.4865011 L144.234565,57.5072842 L135.148786,57.5072842 L135.148786,46.3537684 C138.479913,44.3849937 141.528864,42.07776 144.234565,39.4865011 L144.234565,39.4865011 Z M153.646494,57.5072842 L148.142256,57.5072842 L148.142256,35.2503747 C150.325139,32.5664168 152.176376,29.6587958 153.646494,26.5770947 L153.646494,57.5072842 Z M157.554185,11.1411032 L161.235281,11.1411032 L161.235281,90.5749389 L157.554185,90.5749389 L157.554185,11.1411032 Z M92.2686246,57.5072842 L83.1858996,57.5072842 L83.1858996,48.4443453 C86.0565073,49.8251284 89.0956869,50.9682358 92.2686246,51.8402526 L92.2686246,57.5072842 Z M105.257209,57.5072842 L96.1793696,57.5072842 L96.1793696,52.7602358 C99.1159403,53.3433768 102.150845,53.6969263 105.257209,53.8020211 L105.257209,57.5072842 Z M118.248236,57.5072842 L109.16551,57.5072842 L109.16551,53.8020211 C112.273707,53.6969263 115.308611,53.3433768 118.248236,52.7602358 L118.248236,57.5072842 Z M122.15837,57.5072842 L122.15837,51.8402526 C125.331307,50.9682358 128.371098,49.8251284 131.241095,48.4443453 L131.241095,57.5072842 L122.15837,57.5072842 Z M53.1917132,11.1411032 L56.8728095,11.1411032 L56.8728095,90.5749389 L53.1917132,90.5749389 L53.1917132,11.1411032 Z M153.646494,64.6208505 L60.7811114,64.6208505 L60.7811114,60.9560084 L153.646494,60.9560084 L153.646494,64.6208505 Z M170.650264,35.2525305 L170.650264,57.5072842 L165.146026,57.5072842 L165.146026,26.5770947 C166.61309,29.6609516 168.46677,32.5685726 170.650264,35.2525305 L170.650264,35.2525305 Z M183.643123,46.3537684 L183.643123,57.5072842 L174.560398,57.5072842 L174.560398,39.4886568 C177.266099,42.0799158 180.315051,44.3871495 183.643123,46.3537684 L183.643123,46.3537684 Z M196.635983,57.5072842 L187.550814,57.5072842 L187.550814,48.4443453 C190.423254,49.8272842 193.463045,50.9682358 196.635983,51.8418695 L196.635983,57.5072842 Z M211.578412,60.9560084 C212.657028,60.9560084 213.532258,60.1831579 213.532258,59.2313768 C213.532258,58.2779789 212.657028,57.5072842 211.578412,57.5072842 L200.544284,57.5072842 L200.544284,52.7618526 C204.096509,53.4651789 207.787377,53.8381305 211.578412,53.8381305 C212.657028,53.8381305 213.532258,53.0674358 213.532258,52.1134989 C213.532258,51.1622568 212.657028,50.3894063 211.578412,50.3894063 C185.973812,50.3894063 165.146026,32.0086063 165.146026,9.41701053 C165.146026,8.46522947 164.270185,7.69237895 163.192181,7.69237895 L161.350106,7.69237895 L161.350106,1.88198737 C161.350106,0.930745263 160.474265,0.157894737 159.39626,0.157894737 C158.315201,0.157894737 157.439971,0.930745263 157.439971,1.88198737 L157.439971,7.69237895 L155.600339,7.69237895 C154.521724,7.69237895 153.646494,8.46522947 153.646494,9.41701053 C153.646494,32.0107621 132.815654,50.3894063 107.213497,50.3894063 C81.6113407,50.3894063 60.7811114,32.0107621 60.7811114,9.41701053 C60.7811114,8.46522947 59.9052707,7.69237895 58.8272659,7.69237895 L56.9851908,7.69237895 L56.9851908,1.88198737 C56.9851908,0.930745263 56.10935,0.157894737 55.0313452,0.157894737 C53.9527296,0.157894737 53.0774996,0.930745263 53.0774996,1.88198737 L53.0774996,7.69237895 L51.2354245,7.69237895 C50.1568089,7.69237895 49.2815789,8.46522947 49.2815789,9.41701053 C49.2815789,32.0107621 28.453182,50.3894063 2.84858242,50.3894063 C1.77057759,50.3894063 0.894736842,51.1622568 0.894736842,52.1134989 C0.894736842,53.0674358 1.77057759,53.8397474 2.84858242,53.8397474 C6.63961695,53.8397474 10.3329287,53.4651789 13.8875961,52.7602358 L13.8875961,57.5072842 L2.84858242,57.5072842 C1.77057759,57.5072842 0.894736842,58.2801347 0.894736842,59.2313768 C0.894736842,60.1831579 1.77057759,60.9560084 2.84858242,60.9560084 L49.2815789,60.9560084 L49.2815789,64.6208505 L2.84858242,64.6208505 C1.77057759,64.6208505 0.894736842,65.3937011 0.894736842,66.3454821 C0.894736842,67.29888 1.77057759,68.0695747 2.84858242,68.0695747 L49.2815789,68.0695747 L49.2815789,90.5770947 L47.9189564,90.5770947 C46.8385085,90.5770947 45.9626678,91.3494063 45.9626678,92.3011874 L45.9626678,104.663023 C44.182891,104.696977 42.3933419,104.145095 41.0050671,102.999832 C36.813369,99.5349389 30.2451742,99.5349389 26.0528653,102.999832 C23.3593802,105.227301 19.138976,105.225145 16.4454909,102.999832 C15.6557684,102.347166 14.4201855,102.383276 13.682989,103.080135 C12.9433494,103.774838 12.9836601,104.865128 13.7733826,105.517794 C17.9650807,108.981069 24.5332755,108.981069 28.7249736,105.515638 C31.4190695,103.290324 35.6394737,103.290324 38.3329588,105.517794 C42.5271,108.981069 49.0952948,108.981069 53.2869929,105.515638 C55.9804781,103.290324 60.201493,103.290324 62.8949781,105.517794 C67.0891193,108.981069 73.6548711,108.981069 77.8490122,105.515638 C80.5424974,103.290324 84.7629015,103.290324 87.4569974,105.517794 C91.6486955,108.981069 98.2168904,108.981069 102.408588,105.515638 C105.102074,103.290324 109.322478,103.288168 112.018406,105.517794 C116.210715,108.981069 122.77891,108.981069 126.970608,105.515638 C129.664093,103.290324 133.884497,103.290324 136.580425,105.517794 C140.772734,108.981069 147.340318,108.981069 151.532627,105.515638 C154.226112,103.290324 158.446516,103.290324 161.140002,105.517794 C165.334143,108.981069 171.902338,108.981069 176.094646,105.515638 C178.788132,103.290324 183.008536,103.290324 185.702021,105.517794 C187.799397,107.248354 190.487996,108.11552 193.179038,108.11552 C195.868248,108.11552 198.55929,107.248354 200.656055,105.517794 C201.443334,104.865128 201.484256,103.774838 200.744616,103.080135 C200.00742,102.385432 198.771226,102.349322 197.983947,102.999832 C195.290461,105.227301 191.070057,105.225145 188.374129,102.999832 C184.182431,99.5349389 177.614236,99.5349389 173.422538,102.999832 C172.033653,104.145095 170.244103,104.696977 168.464327,104.663023 L168.464327,92.3011874 C168.464327,91.3494063 167.589097,90.5770947 166.510481,90.5770947 L165.146026,90.5770947 L165.146026,68.0695747 L211.578412,68.0695747 C212.657028,68.0695747 213.532258,67.29888 213.532258,66.3454821 C213.532258,65.3937011 212.657028,64.6208505 211.578412,64.6208505 L165.146026,64.6208505 L165.146026,60.9560084 L211.578412,60.9560084 Z" id="Fill-1"></path>
                <path d="M197.982114,116.124278 C195.288018,118.351747 191.070057,118.351747 188.374129,116.124278 C184.182431,112.658846 177.614236,112.658846 173.420095,116.124278 C170.728442,118.351747 166.508038,118.351747 163.81211,116.124278 C159.620412,112.658846 153.052217,112.658846 148.860519,116.124278 C146.167034,118.351747 141.946019,118.351747 139.25009,116.124278 C135.058392,112.658846 128.490198,112.658846 124.298499,116.124278 C121.602571,118.351747 117.38461,118.351747 114.688071,116.124278 C110.496373,112.658846 103.928178,112.661002 99.7364802,116.124278 C97.042995,118.351747 92.8225909,118.351747 90.1291057,116.124278 C85.9367969,112.658846 79.366159,112.661002 75.1744609,116.124278 C72.4809757,118.351747 68.2605716,118.351747 65.5670864,116.124278 C61.3747776,112.658846 54.8071935,112.661002 50.6124416,116.124278 C47.9189564,118.351747 43.6985523,118.351747 41.0050671,116.124278 C36.813369,112.658846 30.2451742,112.661002 26.051033,116.124278 C23.3569371,118.351747 19.136533,118.351747 16.4430478,116.124278 C15.6557684,115.473768 14.4177424,115.509339 13.6805459,116.204042 C12.9433494,116.898745 12.9836601,117.991731 13.7709395,118.64224 C17.9626376,122.107133 24.5308325,122.107133 28.7225305,118.64224 C31.4166265,116.416926 35.6394737,116.414771 38.3329588,118.64224 C42.5246569,122.107133 49.0928518,122.107133 53.2845498,118.64224 C55.9804781,116.414771 60.1990499,116.414771 62.8925351,118.64224 C67.0866762,122.107133 73.6548711,122.107133 77.8465691,118.64224 C80.5400543,116.416926 84.7604585,116.414771 87.4545544,118.64224 C91.6486955,122.107133 98.2168904,122.107133 102.408588,118.64224 C105.102074,116.414771 109.322478,116.414771 112.016574,118.64224 C116.208272,122.107133 122.776467,122.107133 126.970608,118.64224 C129.664093,116.414771 133.884497,116.414771 136.577982,118.64224 C140.770291,122.107133 147.338486,122.107133 151.530184,118.64224 C154.226112,116.414771 158.446516,116.414771 161.140002,118.64224 C165.3317,122.107133 171.899894,122.107133 176.092203,118.64224 C178.788132,116.414771 183.006093,116.414771 185.699578,118.64224 C187.796954,120.374956 190.487996,121.239966 193.176595,121.239966 C195.868248,121.239966 198.556847,120.374956 200.653612,118.64224 C201.441502,117.991731 201.481813,116.898745 200.744616,116.204042 C200.00742,115.509339 198.771226,115.475924 197.982114,116.124278" id="Fill-3"></path>
            </g>
        </g>
    </g>
</svg>