<?xml version="1.0" encoding="UTF-8" standalone="no"?>
<svg width="1440px" height="334px" viewBox="0 0 1440 334" version="1.1" xmlns="http://www.w3.org/2000/svg" xmlns:xlink="http://www.w3.org/1999/xlink">
    <!-- Generator: Sketch 3.6.1 (26313) - http://www.bohemiancoding.com/sketch -->
    <title>Triangle 1 + Triangle 1 + Triangle 1 + Triangle 1 + Triangle 1 + Triangle 1 + Triangle 1 + Triangle 1 + Triangle 1 + Triangle 1 + Triangle 1 Mask</title>
    <desc>Created with Sketch.</desc>
    <defs></defs>
    <g id="Welcome" stroke="none" stroke-width="1" fill="none" fill-rule="evenodd">
        <g id="about-us" transform="translate(0.000000, -1946.000000)" stroke="#FFFFFF">
            <g id="Triangle-1-+-Triangle-1-+-Triangle-1-+-Triangle-1-+-Triangle-1-+-Triangle-1-+-Triangle-1-+-Triangle-1-+-Triangle-1-+-Triangle-1-+-Triangle-1-Mask" transform="translate(-159.000000, 1520.000000)">
                <polygon id="Triangle-1" points="635 464 879 777 391 777 "></polygon>
                <polygon id="Triangle-1" transform="translate(829.000000, 630.500000) rotate(-180.000000) translate(-829.000000, -630.500000) " points="764 464 1024 797 634 680.5 "></polygon>
                <polygon id="Triangle-1" transform="translate(1047.184803, 720.700009) scale(-1, 1) rotate(-206.000000) translate(-1047.184803, -720.700009) " points="944.935957 604.852629 1149.43365 706.818026 964.886801 836.547388 "></polygon>
                <polygon id="Triangle-1" transform="translate(1138.870390, 696.033918) scale(-1, 1) rotate(-183.000000) translate(-1138.870390, -696.033918) " points="1153.74267 586.696348 1260.12925 620.310258 1017.61153 805.371488 "></polygon>
                <polygon id="Triangle-1" transform="translate(495.749996, 643.000006) rotate(-173.000000) translate(-495.749996, -643.000006) " points="612.582775 447.806737 549.30537 769.415534 378.917217 838.193274 "></polygon>
                <polygon id="Triangle-1" transform="translate(1448.405518, 726.585362) rotate(-164.000000) translate(-1448.405518, -726.585362) " points="1564.36322 534.522069 1502.83597 849.870915 1332.44781 918.648656 "></polygon>
                <polygon id="Triangle-1" transform="translate(1317.366861, 658.651668) rotate(-184.000000) translate(-1317.366861, -658.651668) " points="1344.71835 476.398845 1434.30526 840.90449 1200.42846 716.286525 "></polygon>
                <polygon id="Triangle-1" transform="translate(1182.289216, 676.919516) rotate(-208.000000) translate(-1182.289216, -676.919516) " points="1147.84185 510.145697 1277.43229 837.276124 1087.14614 843.693335 "></polygon>
                <polygon id="Triangle-1" transform="translate(247.929979, 661.176649) rotate(-240.000000) translate(-247.929979, -661.176649) " points="322.394934 466.822706 406.700929 704.52931 89.159029 855.530592 "></polygon>
                <polygon id="Triangle-1" transform="translate(353.065186, 573.739003) rotate(-203.000000) translate(-353.065186, -573.739003) " points="430.360505 362.377476 474.172273 785.100529 231.9581 590.489255 "></polygon>
                <polygon id="Triangle-1" transform="translate(1561.229593, 725.108271) scale(1, -1) rotate(-221.000000) translate(-1561.229593, -725.108271) " points="1621.15133 573.273708 1653.47323 876.942834 1468.98596 748.224784 "></polygon>
            </g>
        </g>
    </g>
</svg>