<?xml version="1.0" encoding="UTF-8" standalone="no"?>
<svg width="172px" height="172px" viewBox="0 0 172 172" version="1.1" xmlns="http://www.w3.org/2000/svg" xmlns:xlink="http://www.w3.org/1999/xlink">
    <!-- Generator: Sketch 3.6.1 (26313) - http://www.bohemiancoding.com/sketch -->
    <title>ui/ux</title>
    <desc>Created with Sketch.</desc>
    <defs></defs>
    <g id="Welcome" stroke="none" stroke-width="1" fill="none" fill-rule="evenodd">
        <g id="about-us" transform="translate(-144.000000, -427.000000)">
            <g id="ui/ux" transform="translate(145.000000, 428.000000)">
                <path d="M30.3571429,63.75 C30.3571429,72.1316071 23.5601786,78.9285714 15.1785714,78.9285714 C6.79696429,78.9285714 0,72.1316071 0,63.75 C0,55.3683929 6.79696429,48.5714286 15.1785714,48.5714286 C23.5601786,48.5714286 30.3571429,55.3683929 30.3571429,63.75" id="Fill-1" fill="#D82488"></path>
                <path d="M30.3571429,63.75 C30.3571429,72.1316071 23.5601786,78.9285714 15.1785714,78.9285714 C6.79696429,78.9285714 0,72.1316071 0,63.75 C0,55.3683929 6.79696429,48.5714286 15.1785714,48.5714286 C23.5601786,48.5714286 30.3571429,55.3683929 30.3571429,63.75 L30.3571429,63.75 Z" id="Stroke-3" stroke="#232E38" stroke-width="2" stroke-linecap="round" stroke-linejoin="round"></path>
                <path d="M121.428571,63.75 C121.428571,72.1316071 114.631607,78.9285714 106.25,78.9285714 C97.8683929,78.9285714 91.0714286,72.1316071 91.0714286,63.75 C91.0714286,55.3683929 97.8683929,48.5714286 106.25,48.5714286 C114.631607,48.5714286 121.428571,55.3683929 121.428571,63.75" id="Fill-5" fill="#D82488"></path>
                <path d="M121.428571,63.75 C121.428571,72.1316071 114.631607,78.9285714 106.25,78.9285714 C97.8683929,78.9285714 91.0714286,72.1316071 91.0714286,63.75 C91.0714286,55.3683929 97.8683929,48.5714286 106.25,48.5714286 C114.631607,48.5714286 121.428571,55.3683929 121.428571,63.75 L121.428571,63.75 Z" id="Stroke-7" stroke="#232E38" stroke-width="2" stroke-linecap="round" stroke-linejoin="round"></path>
                <path d="M30.3571429,63.75 L91.0714286,63.75" id="Stroke-9" stroke="#232E38" stroke-width="2" stroke-linecap="round" stroke-linejoin="round"></path>
                <path d="M30.3571429,154.821429 C30.3571429,163.203036 23.5601786,170 15.1785714,170 C6.79696429,170 0,163.203036 0,154.821429 C0,146.439821 6.79696429,139.642857 15.1785714,139.642857 C23.5601786,139.642857 30.3571429,146.439821 30.3571429,154.821429" id="Fill-11" fill="#D82488"></path>
                <path d="M30.3571429,154.821429 C30.3571429,163.203036 23.5601786,170 15.1785714,170 C6.79696429,170 0,163.203036 0,154.821429 C0,146.439821 6.79696429,139.642857 15.1785714,139.642857 C23.5601786,139.642857 30.3571429,146.439821 30.3571429,154.821429 L30.3571429,154.821429 Z" id="Stroke-13" stroke="#232E38" stroke-width="2" stroke-linecap="round" stroke-linejoin="round"></path>
                <path d="M121.428571,154.821429 C121.428571,163.203036 114.631607,170 106.25,170 C97.8683929,170 91.0714286,163.203036 91.0714286,154.821429 C91.0714286,146.439821 97.8683929,139.642857 106.25,139.642857 C114.631607,139.642857 121.428571,146.439821 121.428571,154.821429" id="Fill-15" fill="#D82488"></path>
                <path d="M121.428571,154.821429 C121.428571,163.203036 114.631607,170 106.25,170 C97.8683929,170 91.0714286,163.203036 91.0714286,154.821429 C91.0714286,146.439821 97.8683929,139.642857 106.25,139.642857 C114.631607,139.642857 121.428571,146.439821 121.428571,154.821429 L121.428571,154.821429 Z" id="Stroke-17" stroke="#232E38" stroke-width="2" stroke-linecap="round" stroke-linejoin="round"></path>
                <path d="M30.3571429,154.821429 L91.0714286,154.821429" id="Stroke-19" stroke="#232E38" stroke-width="2" stroke-linecap="round" stroke-linejoin="round"></path>
                <path d="M15.1785714,78.9285714 L15.1785714,139.642857" id="Stroke-21" stroke="#232E38" stroke-width="2" stroke-linecap="round" stroke-linejoin="round"></path>
                <path d="M106.25,78.9285714 L106.25,139.642857" id="Stroke-23" stroke="#232E38" stroke-width="2" stroke-linecap="round" stroke-linejoin="round"></path>
                <path d="M78.9285714,15.1785714 C78.9285714,23.5601786 72.1316071,30.3571429 63.75,30.3571429 C55.3683929,30.3571429 48.5714286,23.5601786 48.5714286,15.1785714 C48.5714286,6.79696429 55.3683929,0 63.75,0 C72.1316071,0 78.9285714,6.79696429 78.9285714,15.1785714" id="Fill-25" fill="#D82488"></path>
                <path d="M78.9285714,15.1785714 C78.9285714,23.5601786 72.1316071,30.3571429 63.75,30.3571429 C55.3683929,30.3571429 48.5714286,23.5601786 48.5714286,15.1785714 C48.5714286,6.79696429 55.3683929,0 63.75,0 C72.1316071,0 78.9285714,6.79696429 78.9285714,15.1785714 L78.9285714,15.1785714 Z" id="Stroke-27" stroke="#232E38" stroke-width="2" stroke-linecap="round" stroke-linejoin="round"></path>
                <path d="M170,15.1785714 C170,23.5601786 163.203036,30.3571429 154.821429,30.3571429 C146.439821,30.3571429 139.642857,23.5601786 139.642857,15.1785714 C139.642857,6.79696429 146.439821,0 154.821429,0 C163.203036,0 170,6.79696429 170,15.1785714" id="Fill-29" fill="#D82488"></path>
                <path d="M170,15.1785714 C170,23.5601786 163.203036,30.3571429 154.821429,30.3571429 C146.439821,30.3571429 139.642857,23.5601786 139.642857,15.1785714 C139.642857,6.79696429 146.439821,0 154.821429,0 C163.203036,0 170,6.79696429 170,15.1785714 L170,15.1785714 Z" id="Stroke-31" stroke="#232E38" stroke-width="2" stroke-linecap="round" stroke-linejoin="round"></path>
                <path d="M78.9285714,15.1785714 L139.642857,15.1785714" id="Stroke-33" stroke="#232E38" stroke-width="2" stroke-linecap="round" stroke-linejoin="round"></path>
                <path d="M78.9285714,106.25 C78.9285714,114.631607 72.1316071,121.428571 63.75,121.428571 C55.3683929,121.428571 48.5714286,114.631607 48.5714286,106.25 C48.5714286,97.8683929 55.3683929,91.0714286 63.75,91.0714286 C72.1316071,91.0714286 78.9285714,97.8683929 78.9285714,106.25" id="Fill-35" fill="#FFAEDB"></path>
                <path d="M78.9285714,106.25 C78.9285714,114.631607 72.1316071,121.428571 63.75,121.428571 C55.3683929,121.428571 48.5714286,114.631607 48.5714286,106.25 C48.5714286,97.8683929 55.3683929,91.0714286 63.75,91.0714286 C72.1316071,91.0714286 78.9285714,97.8683929 78.9285714,106.25 L78.9285714,106.25 Z" id="Stroke-37" stroke="#232E38" stroke-width="2" stroke-linecap="round" stroke-linejoin="round"></path>
                <path d="M170,106.25 C170,114.631607 163.203036,121.428571 154.821429,121.428571 C146.439821,121.428571 139.642857,114.631607 139.642857,106.25 C139.642857,97.8683929 146.439821,91.0714286 154.821429,91.0714286 C163.203036,91.0714286 170,97.8683929 170,106.25" id="Fill-39" fill="#D82488"></path>
                <path d="M170,106.25 C170,114.631607 163.203036,121.428571 154.821429,121.428571 C146.439821,121.428571 139.642857,114.631607 139.642857,106.25 C139.642857,97.8683929 146.439821,91.0714286 154.821429,91.0714286 C163.203036,91.0714286 170,97.8683929 170,106.25 L170,106.25 Z" id="Stroke-41" stroke="#232E38" stroke-width="2" stroke-linecap="round" stroke-linejoin="round"></path>
                <path d="M154.821429,30.3571429 L154.821429,91.0714286" id="Stroke-43" stroke="#232E38" stroke-width="2" stroke-linecap="round" stroke-linejoin="round"></path>
                <path d="M52.8214286,26.1071429 L26.1071429,52.8214286" id="Stroke-45" stroke="#232E38" stroke-width="2" stroke-linecap="round" stroke-linejoin="round"></path>
                <path d="M143.892857,26.1071429 L117.178571,52.8214286" id="Stroke-47" stroke="#232E38" stroke-width="2" stroke-linecap="round" stroke-linejoin="round"></path>
                <path d="M78.9006429,106.25 L81.9363571,106.25" id="Stroke-49" stroke="#232E38" stroke-width="2" stroke-linecap="round" stroke-linejoin="round"></path>
                <path d="M91.0435,106.25 L132.025643,106.25" id="Stroke-51" stroke="#232E38" stroke-width="2" stroke-linecap="round" stroke-linejoin="round" stroke-dasharray="2,3"></path>
                <path d="M136.579214,106.25 L139.614929,106.25" id="Stroke-53" stroke="#232E38" stroke-width="2" stroke-linecap="round" stroke-linejoin="round"></path>
                <path d="M63.7220714,30.3571429 L63.7220714,33.3928571" id="Stroke-55" stroke="#232E38" stroke-width="2" stroke-linecap="round" stroke-linejoin="round"></path>
                <path d="M63.7220714,42.5 L63.7220714,83.4821429" id="Stroke-57" stroke="#232E38" stroke-width="2" stroke-linecap="round" stroke-linejoin="round" stroke-dasharray="2,3"></path>
                <path d="M63.7220714,88.0357143 L63.7220714,91.0714286" id="Stroke-59" stroke="#232E38" stroke-width="2" stroke-linecap="round" stroke-linejoin="round"></path>
                <path d="M52.9641071,117.007964 L50.8178571,119.154214" id="Stroke-61" stroke="#232E38" stroke-width="2" stroke-linecap="round" stroke-linejoin="round"></path>
                <path d="M45.6434821,124.328589 L30.9840179,138.988054" id="Stroke-63" stroke="#232E38" stroke-width="2" stroke-linecap="round" stroke-linejoin="round" stroke-dasharray="1.607,2.41"></path>
                <path d="M28.396375,141.575696 L26.250125,143.721946" id="Stroke-65" stroke="#232E38" stroke-width="2" stroke-linecap="round" stroke-linejoin="round"></path>
                <path d="M145.107143,118.114482 L118.392857,144.828768" id="Stroke-67" stroke="#232E38" stroke-width="2" stroke-linecap="round" stroke-linejoin="round"></path>
            </g>
        </g>
    </g>
</svg>