<?xml version="1.0" encoding="UTF-8" standalone="no"?>
<svg width="168px" height="126px" viewBox="0 0 168 126" version="1.1" xmlns="http://www.w3.org/2000/svg" xmlns:xlink="http://www.w3.org/1999/xlink">
    <!-- Generator: Sketch 3.6.1 (26313) - http://www.bohemiancoding.com/sketch -->
    <title>web and graphic design</title>
    <desc>Created with Sketch.</desc>
    <defs>
        <path id="path-1" d="M0,0 L170,0 L170,98.7837838 L0,98.7837838 L0,0 Z"></path>
    </defs>
    <g id="Welcome" stroke="none" stroke-width="1" fill="none" fill-rule="evenodd">
        <g id="about-us" transform="translate(-634.000000, -456.000000)">
            <g id="web-and-graphic-design" transform="translate(633.000000, 454.000000)">
                <g id="Page-1" transform="translate(83.471203, 89.594595) rotate(-225.000000) translate(-83.471203, -89.594595) translate(45.565798, 51.689189)">
                    <path d="M40.3773319,43.1356952 C38.0294376,45.4835896 34.2247985,45.4835896 31.8769042,43.1356952 C29.5290098,40.7878009 29.5290098,36.9831618 31.8769042,34.6352675 C34.2247985,32.2873731 38.0294376,32.2873731 40.3773319,34.6352675 C42.7252263,36.9831618 42.7252263,40.7878009 40.3773319,43.1356952 L40.3773319,43.1356952 Z M54.190152,22.9468042 L42.503189,11.258341 L17.438479,20.1968423 L-0.000450075596,70.7628356 L3.1875854,73.9493708 L4.24976381,75.0130495 L54.8157571,57.5741204 L63.7542584,32.5094104 L54.190152,22.9468042 Z" id="Fill-1" fill="#FFFFFF"></path>
                    <path d="M40.3773319,43.1356952 C38.0294376,45.4835896 34.2247985,45.4835896 31.8769042,43.1356952 C29.5290098,40.7878009 29.5290098,36.9831618 31.8769042,34.6352675 C34.2247985,32.2873731 38.0294376,32.2873731 40.3773319,34.6352675 C42.7252263,36.9831618 42.7252263,40.7878009 40.3773319,43.1356952 L40.3773319,43.1356952 Z M54.190152,22.9468042 L42.503189,11.258341 L17.438479,20.1968423 L-0.000450075596,70.7628356 L3.1875854,73.9493708 L4.24976381,75.0130495 L54.8157571,57.5741204 L63.7542584,32.5094104 L54.190152,22.9468042 L54.190152,22.9468042 Z" id="Stroke-3" stroke="#232E38" stroke-width="2" stroke-linecap="round" stroke-linejoin="round"></path>
                    <path d="M63.7538083,32.5100105 L42.5027389,11.2589411 L44.1785204,4.55731546 C45.3112106,0.0250542082 50.9566589,-1.53970862 54.2602137,1.76534651 L73.2474029,20.7525357 C76.552458,24.0560905 74.9876952,29.7015388 70.455434,30.834229 L63.7538083,32.5100105 Z" id="Fill-5" fill="#D82488"></path>
                    <path d="M63.7538083,32.5100105 L42.5027389,11.2589411 L44.1785204,4.55731546 C45.3112106,0.0250542082 50.9566589,-1.53970862 54.2602137,1.76534651 L73.2474029,20.7525357 C76.552458,24.0560905 74.9876952,29.7015388 70.455434,30.834229 L63.7538083,32.5100105 L63.7538083,32.5100105 Z" id="Stroke-7" stroke="#0E1011" stroke-width="2" stroke-linecap="round" stroke-linejoin="round"></path>
                    <path d="M2.12510694,72.8874924 L31.8766041,43.1359953" id="Stroke-9" stroke="#232E38" stroke-width="2" stroke-linecap="round" stroke-linejoin="round"></path>
                </g>
                <g id="Page-1" transform="translate(0.000000, 0.380148)">
                    <path d="M14.6551724,14.527027 C14.6551724,17.7375 12.0318966,20.3378378 8.79310345,20.3378378 C5.55431034,20.3378378 2.93103448,17.7375 2.93103448,14.527027 C2.93103448,11.3165541 5.55431034,8.71621622 8.79310345,8.71621622 C12.0318966,8.71621622 14.6551724,11.3165541 14.6551724,14.527027" id="Fill-1" fill="#FFAEDB"></path>
                    <path d="M14.6551724,14.527027 C14.6551724,17.7375 12.0318966,20.3378378 8.79310345,20.3378378 C5.55431034,20.3378378 2.93103448,17.7375 2.93103448,14.527027 C2.93103448,11.3165541 5.55431034,8.71621622 8.79310345,8.71621622 C12.0318966,8.71621622 14.6551724,11.3165541 14.6551724,14.527027 L14.6551724,14.527027 Z" id="Stroke-3" stroke="#232E38" stroke-width="2" stroke-linecap="round" stroke-linejoin="round"></path>
                    <path d="M167.068966,14.527027 C167.068966,17.7375 164.44569,20.3378378 161.206897,20.3378378 C157.968103,20.3378378 155.344828,17.7375 155.344828,14.527027 C155.344828,11.3165541 157.968103,8.71621622 161.206897,8.71621622 C164.44569,8.71621622 167.068966,11.3165541 167.068966,14.527027" id="Fill-5" fill="#FFAEDB"></path>
                    <path d="M167.068966,14.527027 C167.068966,17.7375 164.44569,20.3378378 161.206897,20.3378378 C157.968103,20.3378378 155.344828,17.7375 155.344828,14.527027 C155.344828,11.3165541 157.968103,8.71621622 161.206897,8.71621622 C164.44569,8.71621622 167.068966,11.3165541 167.068966,14.527027 L167.068966,14.527027 Z" id="Stroke-7" stroke="#232E38" stroke-width="2" stroke-linecap="round" stroke-linejoin="round"></path>
                    <mask id="mask-2" fill="white">
                        <use xlink:href="#path-1"></use>
                    </mask>
                    <g id="Clip-10"></g>
                    <path d="M73.2758621,2.90540541 L96.7241379,2.90540541 L96.7241379,26.1486486 L73.2758621,26.1486486 L73.2758621,2.90540541 Z" id="Fill-9" fill="#D82488" mask="url(#mask-2)"></path>
                    <path d="M73.2758621,2.90540541 L96.7241379,2.90540541 L96.7241379,26.1486486 L73.2758621,26.1486486 L73.2758621,2.90540541 Z" id="Stroke-11" stroke="#232E38" stroke-width="2" stroke-linecap="round" stroke-linejoin="round" mask="url(#mask-2)"></path>
                    <path d="M14.6551724,14.527027 L73.2758621,14.527027" id="Stroke-12" stroke="#232E38" stroke-width="2" stroke-linecap="round" stroke-linejoin="round" mask="url(#mask-2)"></path>
                    <path d="M96.7241379,14.527027 L155.344828,14.527027" id="Stroke-13" stroke="#232E38" stroke-width="2" stroke-linecap="round" stroke-linejoin="round" mask="url(#mask-2)"></path>
                    <path d="M143.62069,72.6351351 L167.068966,72.6351351 L167.068966,95.8783784 L143.62069,95.8783784 L143.62069,72.6351351 Z" id="Fill-14" fill="#FFFFFF" mask="url(#mask-2)"></path>
                    <path d="M143.62069,72.6351351 L167.068966,72.6351351 L167.068966,95.8783784 L143.62069,95.8783784 L143.62069,72.6351351 Z" id="Stroke-15" stroke="#232E38" stroke-width="2" stroke-linecap="round" stroke-linejoin="round" mask="url(#mask-2)"></path>
                    <path d="M2.93103448,72.6351351 L26.3793103,72.6351351 L26.3793103,95.8783784 L2.93103448,95.8783784 L2.93103448,72.6351351 Z" id="Fill-16" fill="#FFFFFF" mask="url(#mask-2)"></path>
                    <path d="M2.93103448,72.6351351 L26.3793103,72.6351351 L26.3793103,95.8783784 L2.93103448,95.8783784 L2.93103448,72.6351351 Z" id="Stroke-17" stroke="#232E38" stroke-width="2" stroke-linecap="round" stroke-linejoin="round" mask="url(#mask-2)"></path>
                    <path d="M154.353552,72.6351351 C149.408897,43.4387162 126.177517,20.410473 96.7235517,15.5090541 L96.7235517,26.1486486 L73.2752759,26.1486486 L73.2752759,15.5090541 C43.8242414,20.410473 20.589931,43.4387162 15.6452759,72.6351351" id="Stroke-18" stroke="#232E38" stroke-width="2" stroke-linecap="round" stroke-linejoin="round" mask="url(#mask-2)"></path>
                </g>
            </g>
        </g>
    </g>
</svg>